<?xml version="1.0" encoding="UTF-8"?>
<svg width="1024px" height="620px" viewBox="0 0 1024 620" version="1.1" xmlns="http://www.w3.org/2000/svg" xmlns:xlink="http://www.w3.org/1999/xlink">
    <!-- Generator: Sketch 52.1 (67048) - http://www.bohemiancoding.com/sketch -->
    <title>hci-2</title>
    <desc>Created with Sketch.</desc>
    <g id="hci-2" stroke="none" stroke-width="1" fill="none" fill-rule="evenodd">
        <g id="Group" transform="translate(396.000000, 173.000000)">
            <path d="M189,280.154352 C189,295.148591 176.90901,376 161.987957,376 C147.084969,376 135,295.142535 135,280.154352 C135,265.166168 147.09099,253.000002 161.987957,253.000002 C176.90901,252.993946 189,265.160112 189,280.154352 L189,280.154352 Z" id="Shape" fill="#A0185C"></path>
            <path d="M97,280.154352 C97,295.148591 84.9090098,376 69.9879572,376 C55.0849688,376 43,295.142535 43,280.154352 C43,265.166168 55.0909902,253.000002 69.9879572,253.000002 C84.9090098,252.993946 97,265.160112 97,280.154352 L97,280.154352 Z" id="Shape" fill="#A0185C"></path>
            <g id="Shape">
                <path d="M192.878337,243.724508 C192.878337,341.078574 158.468444,308.65757 116,308.65757 C73.5437106,308.65757 39.1216632,341.078574 39.1216632,243.724508 C39.1216632,188.060661 73.5558653,142.940773 116,142.940773 C158.456289,142.940773 192.878337,188.060661 192.878337,243.724508 L192.878337,243.724508 Z" fill="#BF3674"></path>
                <g transform="translate(49.485140, 325.480869)" fill="#A8B2BA">
                    <path d="M0.0409270033,0.0579607372 C4.28898688,24.3388101 10.317707,42.5494471 17.1425586,48.6196595 L24.5508347,48.6196595 C31.3939183,42.5494471 37.4287158,24.3388101 41.6706983,0.0579607372 L0.0409270033,0.0579607372 L0.0409270033,0.0579607372 Z"></path>
                    <path d="M91.359021,0.0579607372 C95.6070808,24.3388101 101.635801,42.5494471 108.460653,48.6196595 L115.868929,48.6196595 C122.712012,42.5494471 128.74681,24.3388101 132.988792,0.0579607372 L91.359021,0.0579607372 L91.359021,0.0579607372 Z"></path>
                </g>
                <g transform="translate(38.779210, 348.508514)">
                    <path d="M62.227995,27.7469406 C62.227995,39.2560632 48.4932091,40.7736163 31.5678204,40.7736163 C14.6424316,40.7736163 0.907645738,39.2621334 0.907645738,27.7469406 C0.907645738,16.2317478 14.6424316,0.382423377 31.5678204,0.382423377 C48.4932091,0.382423377 62.227995,16.2256776 62.227995,27.7469406 L62.227995,27.7469406 Z" fill="#8D97A0"></path>
                    <path d="M62.227995,27.7469406 C62.227995,39.2560632 48.4932091,40.7736163 31.5678204,40.7736163 C14.6424316,40.7736163 0.907645738,39.2621334 0.907645738,27.7469406" fill="#79848C"></path>
                </g>
                <g transform="translate(130.998654, 348.508514)">
                    <path d="M61.3266451,27.7469406 C61.3266451,39.2560632 47.5918592,40.7736163 30.6664705,40.7736163 C13.7410817,40.7736163 0.00629581826,39.2621334 0.00629581826,27.7469406 C0.00629581826,16.2317478 13.7410817,0.382423377 30.6664705,0.382423377 C47.5918592,0.382423377 61.3266451,16.2256776 61.3266451,27.7469406 L61.3266451,27.7469406 Z" fill="#8D97A0"></path>
                    <path d="M61.3266451,27.7469406 C61.3266451,39.2560632 47.5918592,40.7736163 30.6664705,40.7736163 C13.7410817,40.7736163 0.00629581826,39.2621334 0.00629581826,27.7469406" fill="#79848C"></path>
                </g>
                <g transform="translate(0.000000, 142.121294)">
                    <path d="M107.522112,15.6914989 C115.258565,24.384043 110.348075,41.3563567 96.5525156,53.6242558 C82.7569563,65.8739443 8.58303534,119.146128 0.834428274,110.471794 C-6.88986944,101.76711 54.7586561,34.3998933 68.5542154,22.1502048 C82.33762,9.90051633 99.7856599,7.01109525 107.522112,15.6914989 L107.522112,15.6914989 Z" fill="#BF3674"></path>
                    <path d="M124.477888,15.6914989 C116.741435,24.384043 121.651925,41.3563567 135.447484,53.6242558 C149.243044,65.8739443 223.416965,119.146128 231.165572,110.471794 C238.889869,101.76711 177.241344,34.3998933 163.445785,22.1502048 C149.66238,9.90051633 132.21434,7.01109525 124.477888,15.6914989 L124.477888,15.6914989 Z" fill="#BF3674"></path>
                    <path d="M55.0686004,40.3244206 C71.9149838,48.8469987 93.0215817,53.1811303 116.012155,53.1811303 C138.990573,53.1811303 160.097171,48.8469987 176.937477,40.3244206 C162.886669,16.3470818 140.850239,0.819478666 116,0.819478666 C91.1558387,0.819478666 69.1133306,16.3410116 55.0686004,40.3244206 L55.0686004,40.3244206 Z" fill="#A0185C"></path>
                    <path d="M116,0.819478666 C94.9906395,0.819478666 76.0111102,11.9461779 62.1487002,29.8775851 C77.676301,36.2695187 96.1331792,39.5231525 116.012155,39.5231525 C135.885053,39.5231525 154.341931,36.2695187 169.863454,29.8775851 C156.001044,11.9522481 137.021515,0.819478666 116,0.819478666 L116,0.819478666 Z" fill="#8D97A0"></path>
                </g>
                <g transform="translate(15.723909, 0.000000)">
                    <path d="M199.768206,96.5461398 C199.768206,145.101768 155.221312,169.510092 100.288246,169.510092 C45.3430254,169.510092 0.783976715,145.101768 0.783976715,96.5461398 C0.783976715,47.9783709 45.3430254,0.788540164 100.288246,0.788540164 C155.221312,0.782469952 199.768206,47.9783709 199.768206,96.5461398 L199.768206,96.5461398 Z" fill="#BF3674"></path>
                    <path d="M199.768206,96.5461398 C199.768206,145.101768 155.221312,169.510092 100.288246,169.510092 C45.3430254,169.510092 0.783976715,145.101768 0.783976715,96.5461398" fill="#A0185C"></path>
                </g>
            </g>
            <path d="M138,27.01 L138,3.418 C131.232,1.87 124.218,1 117.012,1 C109.794,1 102.774,1.876 96,3.418 L96,27.01 C96,33.634 101.376,40 108,40 L126,40 C132.624,40 138,33.634 138,27.01 L138,27.01 Z" id="Shape" fill="#B6C3CC"></path>
            <path d="M96,27.4287041 C96,34.0947515 101.376,40 108,40 L126,40 C132.624,40 138,33.5875523 138,26.927543 L138,3.18578727 C131.232,1.62796098 124.218,1 117.012,1" id="Shape" fill="#A8B2BA"></path>
            <path d="M16.1432033,222 C5.12888781,236.422224 -2.32677065,248.672316 0.663951343,252.051861 C3.59425471,255.35253 16.112994,249.667371 31.2297343,240.699745 L33,238.921995 L16.1432033,222 L16.1432033,222 Z" id="Shape" fill="#B6C3CC"></path>
            <path d="M198,239.346137 C214.367205,249.074243 228.212612,255.513293 231.328134,252.054949 C234.364086,248.675203 226.761966,236.4138 215.560775,222 L198,239.346137 L198,239.346137 Z" id="Shape" fill="#B6C3CC"></path>
            <ellipse id="Oval" fill="#363B3F" cx="115.5" cy="91.5" rx="81.5" ry="34.5"></ellipse>
            <ellipse id="Oval" fill="#A0185C" cx="114.5" cy="243" rx="51.5" ry="22"></ellipse>
            <path d="M198,92 C198,110.775582 161.514535,126 116.5,126 C71.4854651,126 35,110.775582 35,92" id="Shape" fill="#171A1C"></path>
        </g>
    </g>
</svg>