<?xml version="1.0" encoding="UTF-8"?>
<svg width="948px" height="749px" viewBox="0 0 948 749" version="1.1" xmlns="http://www.w3.org/2000/svg" xmlns:xlink="http://www.w3.org/1999/xlink">
    <title>mi-logo-2017</title>
    <g id="mi-logo-2017" stroke="none" stroke-width="1" fill="none" fill-rule="evenodd">
        <g id="Group-187" transform="translate(7.000000, 8.000000)">
            <polygon id="Fill-1" fill="#FFFFFF" points="153.594 265.913 0.165 177.331 307.024 0.165 460.454 88.748"></polygon>
            <polygon id="Stroke-2" stroke="#000000" stroke-width="8.33" stroke-linecap="round" stroke-linejoin="round" points="153.594 265.913 0.165 177.331 307.024 0.165 460.454 88.748"></polygon>
            <polygon id="Fill-3" fill="#FFFFFF" points="460.454 88.748 613.883 0.165 920.743 177.331 767.313 265.913"></polygon>
            <polygon id="Stroke-4" stroke="#000000" stroke-width="8.33" stroke-linecap="round" stroke-linejoin="round" points="460.454 88.748 613.883 0.165 920.743 177.331 767.313 265.913"></polygon>
            <polygon id="Fill-5" fill="#FFFFFF" points="460.454 443.079 767.313 265.913 460.454 88.748 153.594 265.913"></polygon>
            <polygon id="Stroke-6" stroke="#000000" stroke-width="8.33" stroke-linecap="round" stroke-linejoin="round" points="460.454 443.079 767.313 265.913 460.454 88.748 153.594 265.913"></polygon>
            <polygon id="Fill-7" fill="#FFFFFF" points="460.454 88.748 460.454 372.213 153.594 549.378 153.594 265.913"></polygon>
            <polygon id="Stroke-8" stroke="#000000" stroke-width="8.33" stroke-linecap="round" stroke-linejoin="round" points="460.454 88.748 460.454 372.213 153.594 549.378 153.594 265.913"></polygon>
            <polygon id="Fill-9" fill="#FFFFFF" points="767.313 549.378 767.313 265.913 460.454 88.748 460.454 372.213"></polygon>
            <polygon id="Stroke-10" stroke="#000000" stroke-width="8.33" stroke-linecap="round" stroke-linejoin="round" points="767.313 549.378 767.313 265.913 460.454 88.748 460.454 372.213"></polygon>
            <polygon id="Fill-11" fill="#FFFFFF" points="399.082 159.614 460.454 124.181 552.512 177.331 491.14 212.764"></polygon>
            <polygon id="Stroke-12" stroke="#FF0090" stroke-width="6.25" stroke-linecap="round" stroke-linejoin="round" points="399.082 159.614 460.454 124.181 552.512 177.331 491.14 212.764"></polygon>
            <polygon id="Fill-13" fill="#FFFFFF" points="491.14 212.764 491.14 354.496 552.512 319.063 552.512 177.331"></polygon>
            <polygon id="Stroke-14" stroke="#FF0090" stroke-width="6.25" stroke-linecap="round" stroke-linejoin="round" points="491.14 212.764 491.14 354.496 552.512 319.063 552.512 177.331"></polygon>
            <polygon id="Fill-15" fill="#FFFFFF" points="399.082 159.614 491.14 212.764 491.14 354.496 399.082 301.346"></polygon>
            <polygon id="Stroke-16" stroke="#FF0090" stroke-width="6.25" stroke-linecap="round" stroke-linejoin="round" points="399.082 159.614 491.14 212.764 491.14 354.496 399.082 301.346"></polygon>
            <polygon id="Fill-17" fill="#FFFFFF" points="521.826 230.48 552.512 212.764 583.197 230.48 552.512 248.197"></polygon>
            <polygon id="Stroke-18" stroke="#FF0090" stroke-width="6.25" stroke-linecap="round" stroke-linejoin="round" points="521.826 230.48 552.512 212.764 583.197 230.48 552.512 248.197"></polygon>
            <polygon id="Fill-19" fill="#FFFFFF" points="552.512 248.197 552.512 389.929 583.197 372.213 583.197 230.48"></polygon>
            <polygon id="Stroke-20" stroke="#FF0090" stroke-width="6.25" stroke-linecap="round" stroke-linejoin="round" points="552.512 248.197 552.512 389.929 583.197 372.213 583.197 230.48"></polygon>
            <polygon id="Fill-21" fill="#FFFFFF" points="521.826 230.48 552.512 248.197 552.512 389.929 521.826 372.213"></polygon>
            <polygon id="Stroke-22" stroke="#FF0090" stroke-width="6.25" stroke-linecap="round" stroke-linejoin="round" points="521.826 230.48 552.512 248.197 552.512 389.929 521.826 372.213"></polygon>
            <polygon id="Fill-23" fill="#FFFFFF" points="552.512 248.197 583.197 230.48 644.569 265.913 613.883 283.63"></polygon>
            <polygon id="Stroke-24" stroke="#FF0090" stroke-width="6.25" stroke-linecap="round" stroke-linejoin="round" points="552.512 248.197 583.197 230.48 644.569 265.913 613.883 283.63"></polygon>
            <polygon id="Fill-25" fill="#FFFFFF" points="613.883 283.63 613.883 425.362 644.569 407.646 644.569 265.913"></polygon>
            <polygon id="Stroke-26" stroke="#FF0090" stroke-width="6.25" stroke-linecap="round" stroke-linejoin="round" points="613.883 283.63 613.883 425.362 644.569 407.646 644.569 265.913"></polygon>
            <polygon id="Fill-27" fill="#FFFFFF" points="552.512 248.197 613.883 283.63 613.883 425.362 552.512 389.929"></polygon>
            <polygon id="Stroke-28" stroke="#FF0090" stroke-width="6.25" stroke-linecap="round" stroke-linejoin="round" points="552.512 248.197 613.883 283.63 613.883 425.362 552.512 389.929"></polygon>
            <polygon id="Fill-29" fill="#FFFFFF" points="337.71 230.48 399.082 195.047 460.454 230.48 399.082 265.913"></polygon>
            <polygon id="Stroke-30" stroke="#FF0090" stroke-width="6.25" stroke-linecap="round" stroke-linejoin="round" points="337.71 230.48 399.082 195.047 460.454 230.48 399.082 265.913"></polygon>
            <polygon id="Fill-31" fill="#FFFFFF" points="399.082 265.913 399.082 407.646 460.454 372.213 460.454 230.48"></polygon>
            <polygon id="Stroke-32" stroke="#FF0090" stroke-width="6.25" stroke-linecap="round" stroke-linejoin="round" points="399.082 265.913 399.082 407.646 460.454 372.213 460.454 230.48"></polygon>
            <polygon id="Fill-33" fill="#FFFFFF" points="337.71 230.48 399.082 265.913 399.082 407.646 337.71 372.213"></polygon>
            <polygon id="Stroke-34" stroke="#FF0090" stroke-width="6.25" stroke-linecap="round" stroke-linejoin="round" points="337.71 230.48 399.082 265.913 399.082 407.646 337.71 372.213"></polygon>
            <polygon id="Fill-35" fill="#FFFFFF" points="491.14 283.63 521.826 265.913 583.197 301.346 552.512 319.063"></polygon>
            <polygon id="Stroke-36" stroke="#FF0090" stroke-width="6.25" stroke-linecap="round" stroke-linejoin="round" points="491.14 283.63 521.826 265.913 583.197 301.346 552.512 319.063"></polygon>
            <polygon id="Fill-37" fill="#FFFFFF" points="552.512 319.063 552.512 460.795 583.197 443.079 583.197 301.346"></polygon>
            <polygon id="Stroke-38" stroke="#FF0090" stroke-width="6.25" stroke-linecap="round" stroke-linejoin="round" points="552.512 319.063 552.512 460.795 583.197 443.079 583.197 301.346"></polygon>
            <polygon id="Fill-39" fill="#FFFFFF" points="491.14 283.63 552.512 319.063 552.512 460.795 491.14 425.362"></polygon>
            <polygon id="Stroke-40" stroke="#FF0090" stroke-width="6.25" stroke-linecap="round" stroke-linejoin="round" points="491.14 283.63 552.512 319.063 552.512 460.795 491.14 425.362"></polygon>
            <polygon id="Fill-41" fill="#FFFFFF" points="429.768 319.063 460.454 301.346 521.826 336.779 491.14 354.496"></polygon>
            <polygon id="Stroke-42" stroke="#FF0090" stroke-width="6.25" stroke-linecap="round" stroke-linejoin="round" points="429.768 319.063 460.454 301.346 521.826 336.779 491.14 354.496"></polygon>
            <polygon id="Fill-43" fill="#FFFFFF" points="491.14 354.496 491.14 496.228 521.826 478.512 521.826 336.779"></polygon>
            <polygon id="Stroke-44" stroke="#FF0090" stroke-width="6.25" stroke-linecap="round" stroke-linejoin="round" points="491.14 354.496 491.14 496.228 521.826 478.512 521.826 336.779"></polygon>
            <polygon id="Fill-45" fill="#FFFFFF" points="429.768 319.063 491.14 354.496 491.14 496.228 429.768 460.795"></polygon>
            <polygon id="Stroke-46" stroke="#FF0090" stroke-width="6.25" stroke-linecap="round" stroke-linejoin="round" points="429.768 319.063 491.14 354.496 491.14 496.228 429.768 460.795"></polygon>
            <polygon id="Fill-47" fill="#FFFFFF" points="307.024 319.063 337.71 301.346 399.082 336.779 368.396 354.496"></polygon>
            <polygon id="Stroke-48" stroke="#FF0090" stroke-width="6.25" stroke-linecap="round" stroke-linejoin="round" points="307.024 319.063 337.71 301.346 399.082 336.779 368.396 354.496"></polygon>
            <polygon id="Fill-49" fill="#FFFFFF" points="368.396 354.496 368.396 496.228 399.082 478.512 399.082 336.779"></polygon>
            <polygon id="Stroke-50" stroke="#FF0090" stroke-width="6.25" stroke-linecap="round" stroke-linejoin="round" points="368.396 354.496 368.396 496.228 399.082 478.512 399.082 336.779"></polygon>
            <polygon id="Fill-51" fill="#FFFFFF" points="307.024 319.063 368.396 354.496 368.396 496.228 307.024 460.795"></polygon>
            <polygon id="Stroke-52" stroke="#FF0090" stroke-width="6.25" stroke-linecap="round" stroke-linejoin="round" points="307.024 319.063 368.396 354.496 368.396 496.228 307.024 460.795"></polygon>
            <polygon id="Fill-53" fill="#FFFFFF" points="552.512 354.496 583.197 336.779 613.883 354.496 583.197 372.213"></polygon>
            <polygon id="Stroke-54" stroke="#FF0090" stroke-width="6.25" stroke-linecap="round" stroke-linejoin="round" points="552.512 354.496 583.197 336.779 613.883 354.496 583.197 372.213"></polygon>
            <polygon id="Fill-55" fill="#FFFFFF" points="583.197 372.213 583.197 513.945 613.883 496.228 613.883 354.496"></polygon>
            <polygon id="Stroke-56" stroke="#FF0090" stroke-width="6.25" stroke-linecap="round" stroke-linejoin="round" points="583.197 372.213 583.197 513.945 613.883 496.228 613.883 354.496"></polygon>
            <polygon id="Fill-57" fill="#FFFFFF" points="552.512 354.496 583.197 372.213 583.197 513.945 552.512 496.228"></polygon>
            <polygon id="Stroke-58" stroke="#FF0090" stroke-width="6.25" stroke-linecap="round" stroke-linejoin="round" points="552.512 354.496 583.197 372.213 583.197 513.945 552.512 496.228"></polygon>
            <polygon id="Fill-59" fill="#FFFFFF" points="583.197 336.779 644.569 301.346 675.255 319.063 613.883 354.496"></polygon>
            <polygon id="Stroke-60" stroke="#FF0090" stroke-width="6.25" stroke-linecap="round" stroke-linejoin="round" points="583.197 336.779 644.569 301.346 675.255 319.063 613.883 354.496"></polygon>
            <polygon id="Fill-61" fill="#FFFFFF" points="613.883 354.496 613.883 496.228 675.255 460.795 675.255 319.063"></polygon>
            <polygon id="Stroke-62" stroke="#FF0090" stroke-width="6.25" stroke-linecap="round" stroke-linejoin="round" points="613.883 354.496 613.883 496.228 675.255 460.795 675.255 319.063"></polygon>
            <polygon id="Fill-63" fill="#FFFFFF" points="583.197 336.779 613.883 354.496 613.883 496.228 583.197 478.512"></polygon>
            <polygon id="Stroke-64" stroke="#FF0090" stroke-width="6.25" stroke-linecap="round" stroke-linejoin="round" points="583.197 336.779 613.883 354.496 613.883 496.228 583.197 478.512"></polygon>
            <polygon id="Fill-65" fill="#FFFFFF" points="613.883 389.929 675.255 354.496 736.627 389.929 675.255 425.362"></polygon>
            <polygon id="Stroke-66" stroke="#FF0090" stroke-width="6.25" stroke-linecap="round" stroke-linejoin="round" points="613.883 389.929 675.255 354.496 736.627 389.929 675.255 425.362"></polygon>
            <polygon id="Fill-67" fill="#FFFFFF" points="675.255 425.362 675.255 567.094 736.627 531.661 736.627 389.929"></polygon>
            <polygon id="Stroke-68" stroke="#FF0090" stroke-width="6.25" stroke-linecap="round" stroke-linejoin="round" points="675.255 425.362 675.255 567.094 736.627 531.661 736.627 389.929"></polygon>
            <polygon id="Fill-69" fill="#FFFFFF" points="613.883 389.929 675.255 425.362 675.255 567.094 613.883 531.661"></polygon>
            <polygon id="Stroke-70" stroke="#FF0090" stroke-width="6.25" stroke-linecap="round" stroke-linejoin="round" points="613.883 389.929 675.255 425.362 675.255 567.094 613.883 531.661"></polygon>
            <polygon id="Fill-71" fill="#FFFFFF" points="276.338 265.913 307.024 248.197 337.71 265.913 307.024 283.63"></polygon>
            <polygon id="Stroke-72" stroke="#FF0090" stroke-width="6.25" stroke-linecap="round" stroke-linejoin="round" points="276.338 265.913 307.024 248.197 337.71 265.913 307.024 283.63"></polygon>
            <polygon id="Fill-73" fill="#FFFFFF" points="307.024 283.63 307.024 425.362 337.71 407.646 337.71 265.913"></polygon>
            <polygon id="Stroke-74" stroke="#FF0090" stroke-width="6.25" stroke-linecap="round" stroke-linejoin="round" points="307.024 283.63 307.024 425.362 337.71 407.646 337.71 265.913"></polygon>
            <polygon id="Fill-75" fill="#FFFFFF" points="276.338 265.913 307.024 283.63 307.024 425.362 276.338 407.646"></polygon>
            <polygon id="Stroke-76" stroke="#FF0090" stroke-width="6.25" stroke-linecap="round" stroke-linejoin="round" points="276.338 265.913 307.024 283.63 307.024 425.362 276.338 407.646"></polygon>
            <polygon id="Fill-77" fill="#FFFFFF" points="307.024 319.063 337.71 301.346 368.396 319.063 337.71 336.779"></polygon>
            <polygon id="Stroke-78" stroke="#FF0090" stroke-width="6.25" stroke-linecap="round" stroke-linejoin="round" points="307.024 319.063 337.71 301.346 368.396 319.063 337.71 336.779"></polygon>
            <polygon id="Fill-79" fill="#FFFFFF" points="337.71 336.779 337.71 478.512 368.396 460.795 368.396 319.063"></polygon>
            <polygon id="Stroke-80" stroke="#FF0090" stroke-width="6.25" stroke-linecap="round" stroke-linejoin="round" points="337.71 336.779 337.71 478.512 368.396 460.795 368.396 319.063"></polygon>
            <polygon id="Fill-81" fill="#FFFFFF" points="307.024 319.063 337.71 336.779 337.71 478.512 307.024 460.795"></polygon>
            <polygon id="Stroke-82" stroke="#FF0090" stroke-width="6.25" stroke-linecap="round" stroke-linejoin="round" points="307.024 319.063 337.71 336.779 337.71 478.512 307.024 460.795"></polygon>
            <polygon id="Fill-83" fill="#FFFFFF" points="337.71 336.779 429.768 283.63 491.14 319.063 399.082 372.213"></polygon>
            <polygon id="Stroke-84" stroke="#FF0090" stroke-width="6.25" stroke-linecap="round" stroke-linejoin="round" points="337.71 336.779 429.768 283.63 491.14 319.063 399.082 372.213"></polygon>
            <polygon id="Fill-85" fill="#FFFFFF" points="399.082 372.213 399.082 513.945 491.14 460.795 491.14 319.063"></polygon>
            <polygon id="Stroke-86" stroke="#FF0090" stroke-width="6.25" stroke-linecap="round" stroke-linejoin="round" points="399.082 372.213 399.082 513.945 491.14 460.795 491.14 319.063"></polygon>
            <polygon id="Fill-87" fill="#FFFFFF" points="337.71 336.779 399.082 372.213 399.082 513.945 337.71 478.512"></polygon>
            <polygon id="Stroke-88" stroke="#FF0090" stroke-width="6.25" stroke-linecap="round" stroke-linejoin="round" points="337.71 336.779 399.082 372.213 399.082 513.945 337.71 478.512"></polygon>
            <polygon id="Fill-89" fill="#FFFFFF" points="460.454 372.213 521.826 336.779 613.883 389.929 552.512 425.362"></polygon>
            <polygon id="Stroke-90" stroke="#FF0090" stroke-width="6.25" stroke-linecap="round" stroke-linejoin="round" points="460.454 372.213 521.826 336.779 613.883 389.929 552.512 425.362"></polygon>
            <polygon id="Fill-91" fill="#FFFFFF" points="552.512 425.362 552.512 567.094 613.883 531.661 613.883 389.929"></polygon>
            <polygon id="Stroke-92" stroke="#FF0090" stroke-width="6.25" stroke-linecap="round" stroke-linejoin="round" points="552.512 425.362 552.512 567.094 613.883 531.661 613.883 389.929"></polygon>
            <polygon id="Fill-93" fill="#FFFFFF" points="460.454 372.213 552.512 425.362 552.512 567.094 460.454 513.945"></polygon>
            <polygon id="Stroke-94" stroke="#FF0090" stroke-width="6.25" stroke-linecap="round" stroke-linejoin="round" points="460.454 372.213 552.512 425.362 552.512 567.094 460.454 513.945"></polygon>
            <polygon id="Fill-95" fill="#FFFFFF" points="429.768 283.63 460.454 265.913 491.14 283.63 460.454 301.346"></polygon>
            <polygon id="Stroke-96" stroke="#FF0090" stroke-width="6.25" stroke-linecap="round" stroke-linejoin="round" points="429.768 283.63 460.454 265.913 491.14 283.63 460.454 301.346"></polygon>
            <polygon id="Fill-97" fill="#FFFFFF" points="460.454 301.346 460.454 443.079 491.14 425.362 491.14 283.63"></polygon>
            <polygon id="Stroke-98" stroke="#FF0090" stroke-width="6.25" stroke-linecap="round" stroke-linejoin="round" points="460.454 301.346 460.454 443.079 491.14 425.362 491.14 283.63"></polygon>
            <polygon id="Fill-99" fill="#FFFFFF" points="429.768 283.63 460.454 301.346 460.454 443.079 429.768 425.362"></polygon>
            <polygon id="Stroke-100" stroke="#FF0090" stroke-width="6.25" stroke-linecap="round" stroke-linejoin="round" points="429.768 283.63 460.454 301.346 460.454 443.079 429.768 425.362"></polygon>
            <polygon id="Fill-101" fill="#FFFFFF" points="460.454 372.213 491.14 354.496 552.512 389.929 521.826 407.646"></polygon>
            <polygon id="Stroke-102" stroke="#FF0090" stroke-width="6.25" stroke-linecap="round" stroke-linejoin="round" points="460.454 372.213 491.14 354.496 552.512 389.929 521.826 407.646"></polygon>
            <polygon id="Fill-103" fill="#FFFFFF" points="521.826 407.646 521.826 549.378 552.512 531.661 552.512 389.929"></polygon>
            <polygon id="Stroke-104" stroke="#FF0090" stroke-width="6.25" stroke-linecap="round" stroke-linejoin="round" points="521.826 407.646 521.826 549.378 552.512 531.661 552.512 389.929"></polygon>
            <polygon id="Fill-105" fill="#FFFFFF" points="460.454 372.213 521.826 407.646 521.826 549.378 460.454 513.945"></polygon>
            <polygon id="Stroke-106" stroke="#FF0090" stroke-width="6.25" stroke-linecap="round" stroke-linejoin="round" points="460.454 372.213 521.826 407.646 521.826 549.378 460.454 513.945"></polygon>
            <polygon id="Fill-107" fill="#FFFFFF" points="399.082 407.646 429.768 389.929 491.14 425.362 460.454 443.079"></polygon>
            <polygon id="Stroke-108" stroke="#FF0090" stroke-width="6.25" stroke-linecap="round" stroke-linejoin="round" points="399.082 407.646 429.768 389.929 491.14 425.362 460.454 443.079"></polygon>
            <polygon id="Fill-109" fill="#FFFFFF" points="460.454 443.079 460.454 584.811 491.14 567.094 491.14 425.362"></polygon>
            <polygon id="Stroke-110" stroke="#FF0090" stroke-width="6.25" stroke-linecap="round" stroke-linejoin="round" points="460.454 443.079 460.454 584.811 491.14 567.094 491.14 425.362"></polygon>
            <polygon id="Fill-111" fill="#FFFFFF" points="399.082 407.646 460.454 443.079 460.454 584.811 399.082 549.378"></polygon>
            <polygon id="Stroke-112" stroke="#FF0090" stroke-width="6.25" stroke-linecap="round" stroke-linejoin="round" points="399.082 407.646 460.454 443.079 460.454 584.811 399.082 549.378"></polygon>
            <polygon id="Fill-113" fill="#FFFFFF" points="460.454 443.079 491.14 425.362 521.826 443.079 491.14 460.795"></polygon>
            <polygon id="Stroke-114" stroke="#FF0090" stroke-width="6.25" stroke-linecap="round" stroke-linejoin="round" points="460.454 443.079 491.14 425.362 521.826 443.079 491.14 460.795"></polygon>
            <polygon id="Fill-115" fill="#FFFFFF" points="491.14 460.795 491.14 602.527 521.826 584.811 521.826 443.079"></polygon>
            <polygon id="Stroke-116" stroke="#FF0090" stroke-width="6.25" stroke-linecap="round" stroke-linejoin="round" points="491.14 460.795 491.14 602.527 521.826 584.811 521.826 443.079"></polygon>
            <polygon id="Fill-117" fill="#FFFFFF" points="460.454 443.079 491.14 460.795 491.14 602.527 460.454 584.811"></polygon>
            <polygon id="Stroke-118" stroke="#FF0090" stroke-width="6.25" stroke-linecap="round" stroke-linejoin="round" points="460.454 443.079 491.14 460.795 491.14 602.527 460.454 584.811"></polygon>
            <polygon id="Fill-119" fill="#FFFFFF" points="521.826 443.079 613.883 389.929 675.255 425.362 583.197 478.512"></polygon>
            <polygon id="Stroke-120" stroke="#FF0090" stroke-width="6.25" stroke-linecap="round" stroke-linejoin="round" points="521.826 443.079 613.883 389.929 675.255 425.362 583.197 478.512"></polygon>
            <polygon id="Fill-121" fill="#FFFFFF" points="583.197 478.512 583.197 620.244 675.255 567.094 675.255 425.362"></polygon>
            <polygon id="Stroke-122" stroke="#FF0090" stroke-width="6.25" stroke-linecap="round" stroke-linejoin="round" points="583.197 478.512 583.197 620.244 675.255 567.094 675.255 425.362"></polygon>
            <polygon id="Fill-123" fill="#FFFFFF" points="521.826 443.079 583.197 478.512 583.197 620.244 521.826 584.811"></polygon>
            <polygon id="Stroke-124" stroke="#FF0090" stroke-width="6.25" stroke-linecap="round" stroke-linejoin="round" points="521.826 443.079 583.197 478.512 583.197 620.244 521.826 584.811"></polygon>
            <polygon id="Fill-125" fill="#FFFFFF" points="399.082 443.079 429.768 425.362 491.14 460.795 460.454 478.512"></polygon>
            <polygon id="Stroke-126" stroke="#FF0090" stroke-width="6.25" stroke-linecap="round" stroke-linejoin="round" points="399.082 443.079 429.768 425.362 491.14 460.795 460.454 478.512"></polygon>
            <polygon id="Fill-127" fill="#FFFFFF" points="460.454 478.512 460.454 620.244 491.14 602.527 491.14 460.795"></polygon>
            <polygon id="Stroke-128" stroke="#FF0090" stroke-width="6.25" stroke-linecap="round" stroke-linejoin="round" points="460.454 478.512 460.454 620.244 491.14 602.527 491.14 460.795"></polygon>
            <polygon id="Fill-129" fill="#FFFFFF" points="399.082 443.079 460.454 478.512 460.454 620.244 399.082 584.811"></polygon>
            <polygon id="Stroke-130" stroke="#FF0090" stroke-width="6.25" stroke-linecap="round" stroke-linejoin="round" points="399.082 443.079 460.454 478.512 460.454 620.244 399.082 584.811"></polygon>
            <polygon id="Fill-131" fill="#FFFFFF" points="214.966 336.779 276.338 301.346 368.396 354.496 307.024 389.929"></polygon>
            <polygon id="Stroke-132" stroke="#FF0090" stroke-width="6.25" stroke-linecap="round" stroke-linejoin="round" points="214.966 336.779 276.338 301.346 368.396 354.496 307.024 389.929"></polygon>
            <polygon id="Fill-133" fill="#FFFFFF" points="307.024 389.929 307.024 531.661 368.396 496.228 368.396 354.496"></polygon>
            <polygon id="Stroke-134" stroke="#FF0090" stroke-width="6.25" stroke-linecap="round" stroke-linejoin="round" points="307.024 389.929 307.024 531.661 368.396 496.228 368.396 354.496"></polygon>
            <polygon id="Fill-135" fill="#FFFFFF" points="214.966 336.779 307.024 389.929 307.024 531.661 214.966 478.512"></polygon>
            <polygon id="Stroke-136" stroke="#FF0090" stroke-width="6.25" stroke-linecap="round" stroke-linejoin="round" points="214.966 336.779 307.024 389.929 307.024 531.661 214.966 478.512"></polygon>
            <polygon id="Fill-137" fill="#FFFFFF" points="307.024 425.362 368.396 389.929 399.082 407.646 337.71 443.079"></polygon>
            <polygon id="Stroke-138" stroke="#FF0090" stroke-width="6.25" stroke-linecap="round" stroke-linejoin="round" points="307.024 425.362 368.396 389.929 399.082 407.646 337.71 443.079"></polygon>
            <polygon id="Fill-139" fill="#FFFFFF" points="337.71 443.079 337.71 584.811 399.082 549.378 399.082 407.646"></polygon>
            <polygon id="Stroke-140" stroke="#FF0090" stroke-width="6.25" stroke-linecap="round" stroke-linejoin="round" points="337.71 443.079 337.71 584.811 399.082 549.378 399.082 407.646"></polygon>
            <polygon id="Fill-141" fill="#FFFFFF" points="307.024 425.362 337.71 443.079 337.71 584.811 307.024 567.094"></polygon>
            <polygon id="Stroke-142" stroke="#FF0090" stroke-width="6.25" stroke-linecap="round" stroke-linejoin="round" points="307.024 425.362 337.71 443.079 337.71 584.811 307.024 567.094"></polygon>
            <polygon id="Fill-143" fill="#FFFFFF" points="184.28 389.929 214.966 372.213 276.338 407.646 245.652 425.362"></polygon>
            <polygon id="Stroke-144" stroke="#FF0090" stroke-width="6.25" stroke-linecap="round" stroke-linejoin="round" points="184.28 389.929 214.966 372.213 276.338 407.646 245.652 425.362"></polygon>
            <polygon id="Fill-145" fill="#FFFFFF" points="245.652 425.362 245.652 567.094 276.338 549.378 276.338 407.646"></polygon>
            <polygon id="Stroke-146" stroke="#FF0090" stroke-width="6.25" stroke-linecap="round" stroke-linejoin="round" points="245.652 425.362 245.652 567.094 276.338 549.378 276.338 407.646"></polygon>
            <polygon id="Fill-147" fill="#FFFFFF" points="184.28 389.929 245.652 425.362 245.652 567.094 184.28 531.661"></polygon>
            <polygon id="Stroke-148" stroke="#FF0090" stroke-width="6.25" stroke-linecap="round" stroke-linejoin="round" points="184.28 389.929 245.652 425.362 245.652 567.094 184.28 531.661"></polygon>
            <polygon id="Fill-149" fill="#FFFFFF" points="245.652 425.362 276.338 407.646 337.71 443.079 307.024 460.795"></polygon>
            <polygon id="Stroke-150" stroke="#FF0090" stroke-width="6.25" stroke-linecap="round" stroke-linejoin="round" points="245.652 425.362 276.338 407.646 337.71 443.079 307.024 460.795"></polygon>
            <polygon id="Fill-151" fill="#FFFFFF" points="307.024 460.795 307.024 602.527 337.71 584.811 337.71 443.079"></polygon>
            <polygon id="Stroke-152" stroke="#FF0090" stroke-width="6.25" stroke-linecap="round" stroke-linejoin="round" points="307.024 460.795 307.024 602.527 337.71 584.811 337.71 443.079"></polygon>
            <polygon id="Fill-153" fill="#FFFFFF" points="245.652 425.362 307.024 460.795 307.024 602.527 245.652 567.094"></polygon>
            <polygon id="Stroke-154" stroke="#FF0090" stroke-width="6.25" stroke-linecap="round" stroke-linejoin="round" points="245.652 425.362 307.024 460.795 307.024 602.527 245.652 567.094"></polygon>
            <polygon id="Fill-155" fill="#FFFFFF" points="307.024 425.362 399.082 372.213 460.454 407.646 368.396 460.795"></polygon>
            <polygon id="Stroke-156" stroke="#FF0090" stroke-width="6.25" stroke-linecap="round" stroke-linejoin="round" points="307.024 425.362 399.082 372.213 460.454 407.646 368.396 460.795"></polygon>
            <polygon id="Fill-157" fill="#FFFFFF" points="368.396 460.795 368.396 602.527 460.454 549.378 460.454 407.646"></polygon>
            <polygon id="Stroke-158" stroke="#FF0090" stroke-width="6.25" stroke-linecap="round" stroke-linejoin="round" points="368.396 460.795 368.396 602.527 460.454 549.378 460.454 407.646"></polygon>
            <polygon id="Fill-159" fill="#FFFFFF" points="307.024 425.362 368.396 460.795 368.396 602.527 307.024 567.094"></polygon>
            <polygon id="Stroke-160" stroke="#FF0090" stroke-width="6.25" stroke-linecap="round" stroke-linejoin="round" points="307.024 425.362 368.396 460.795 368.396 602.527 307.024 567.094"></polygon>
            <polygon id="Fill-161" fill="#FFFFFF" points="429.768 460.795 460.454 443.079 491.14 460.795 460.454 478.512"></polygon>
            <polygon id="Stroke-162" stroke="#FF0090" stroke-width="6.25" stroke-linecap="round" stroke-linejoin="round" points="429.768 460.795 460.454 443.079 491.14 460.795 460.454 478.512"></polygon>
            <polygon id="Fill-163" fill="#FFFFFF" points="460.454 478.512 460.454 620.244 491.14 602.527 491.14 460.795"></polygon>
            <polygon id="Stroke-164" stroke="#FF0090" stroke-width="6.25" stroke-linecap="round" stroke-linejoin="round" points="460.454 478.512 460.454 620.244 491.14 602.527 491.14 460.795"></polygon>
            <polygon id="Fill-165" fill="#FFFFFF" points="429.768 460.795 460.454 478.512 460.454 620.244 429.768 602.527"></polygon>
            <polygon id="Stroke-166" stroke="#FF0090" stroke-width="6.25" stroke-linecap="round" stroke-linejoin="round" points="429.768 460.795 460.454 478.512 460.454 620.244 429.768 602.527"></polygon>
            <polygon id="Fill-167" fill="#FFFFFF" points="460.454 478.512 521.826 443.079 583.197 478.512 521.826 513.945"></polygon>
            <polygon id="Stroke-168" stroke="#FF0090" stroke-width="6.25" stroke-linecap="round" stroke-linejoin="round" points="460.454 478.512 521.826 443.079 583.197 478.512 521.826 513.945"></polygon>
            <polygon id="Fill-169" fill="#FFFFFF" points="521.826 513.945 521.826 655.677 583.197 620.244 583.197 478.512"></polygon>
            <polygon id="Stroke-170" stroke="#FF0090" stroke-width="6.25" stroke-linecap="round" stroke-linejoin="round" points="521.826 513.945 521.826 655.677 583.197 620.244 583.197 478.512"></polygon>
            <polygon id="Fill-171" fill="#FFFFFF" points="460.454 478.512 521.826 513.945 521.826 655.677 460.454 620.244"></polygon>
            <polygon id="Stroke-172" stroke="#FF0090" stroke-width="6.25" stroke-linecap="round" stroke-linejoin="round" points="460.454 478.512 521.826 513.945 521.826 655.677 460.454 620.244"></polygon>
            <polygon id="Fill-173" fill="#FFFFFF" points="368.396 496.228 429.768 460.795 521.826 513.945 460.454 549.378"></polygon>
            <polygon id="Stroke-174" stroke="#FF0090" stroke-width="6.25" stroke-linecap="round" stroke-linejoin="round" points="368.396 496.228 429.768 460.795 521.826 513.945 460.454 549.378"></polygon>
            <polygon id="Fill-175" fill="#FFFFFF" points="460.454 549.378 460.454 691.11 521.826 655.677 521.826 513.945"></polygon>
            <polygon id="Stroke-176" stroke="#FF0090" stroke-width="6.25" stroke-linecap="round" stroke-linejoin="round" points="460.454 549.378 460.454 691.11 521.826 655.677 521.826 513.945"></polygon>
            <polygon id="Fill-177" fill="#FFFFFF" points="368.396 496.228 460.454 549.378 460.454 691.11 368.396 637.961"></polygon>
            <polygon id="Stroke-178" stroke="#FF0090" stroke-width="6.25" stroke-linecap="round" stroke-linejoin="round" points="368.396 496.228 460.454 549.378 460.454 691.11 368.396 637.961"></polygon>
            <polygon id="Fill-179" fill="#FFFFFF" points="460.454 726.543 767.313 549.378 767.313 265.913 460.454 443.079"></polygon>
            <polygon id="Stroke-180" stroke="#000000" stroke-width="8.33" stroke-linecap="round" stroke-linejoin="round" points="460.454 726.543 767.313 549.378 767.313 265.913 460.454 443.079"></polygon>
            <polygon id="Fill-181" fill="#FFFFFF" points="153.594 549.378 460.454 726.543 460.454 443.079 153.594 265.913"></polygon>
            <polygon id="Stroke-182" stroke="#000000" stroke-width="8.33" stroke-linecap="round" stroke-linejoin="round" points="153.594 549.378 460.454 726.543 460.454 443.079 153.594 265.913"></polygon>
            <polygon id="Fill-183" fill="#FFFFFF" points="767.313 265.913 920.743 354.496 613.883 531.661 460.454 443.079"></polygon>
            <polygon id="Stroke-184" stroke="#000000" stroke-width="8.33" stroke-linecap="round" stroke-linejoin="round" points="767.313 265.913 920.743 354.496 613.883 531.661 460.454 443.079"></polygon>
            <polygon id="Fill-185" fill="#FFFFFF" points="153.594 265.913 0.165 354.496 307.024 531.661 460.454 443.079"></polygon>
            <polygon id="Stroke-186" stroke="#000000" stroke-width="8.33" stroke-linecap="round" stroke-linejoin="round" points="153.594 265.913 0.165 354.496 307.024 531.661 460.454 443.079"></polygon>
        </g>
    </g>
</svg>