<?xml version="1.0" encoding="UTF-8" standalone="no"?><!DOCTYPE svg PUBLIC "-//W3C//DTD SVG 1.1//EN" "http://www.w3.org/Graphics/SVG/1.1/DTD/svg11.dtd"><svg width="100%" height="100%" viewBox="0 0 2363 945" version="1.1" xmlns="http://www.w3.org/2000/svg" xmlns:xlink="http://www.w3.org/1999/xlink" xml:space="preserve" style="fill-rule:evenodd;clip-rule:evenodd;stroke-linecap:round;stroke-linejoin:round;stroke-miterlimit:1.5;"><g><path d="M337.545,407.48l-153.429,-88.582l306.859,-177.166l153.43,88.583l-306.86,177.165Z" style="fill:#fff;stroke:#000;stroke-width:8.33px;"/><path d="M644.405,230.315l153.429,-88.583l306.86,177.166l-153.43,88.582l-306.859,-177.165Z" style="fill:#fff;stroke:#000;stroke-width:8.33px;"/><path d="M644.405,584.646l306.859,-177.166l-306.859,-177.165l-306.86,177.165l306.86,177.166Z" style="fill:#fff;stroke:#000;stroke-width:8.33px;"/><path d="M644.405,230.315l0,283.465l-306.86,177.165l0,-283.465l306.86,-177.165Z" style="fill:#fff;stroke:#000;stroke-width:8.33px;"/><path d="M951.264,690.945l0,-283.465l-306.859,-177.165l0,283.465l306.859,177.165Z" style="fill:#fff;stroke:#000;stroke-width:8.33px;"/></g><g><path d="M583.033,301.181l61.372,-35.433l92.058,53.15l-61.372,35.433l-92.058,-53.15Z" style="fill:#fff;stroke:#ff0090;stroke-width:6.25px;"/><path d="M675.091,354.331l0,141.732l61.372,-35.433l0,-141.732l-61.372,35.433Z" style="fill:#fff;stroke:#ff0090;stroke-width:6.25px;"/><path d="M583.033,301.181l92.058,53.15l0,141.732l-92.058,-53.15l0,-141.732Z" style="fill:#fff;stroke:#ff0090;stroke-width:6.25px;"/></g><g><path d="M705.777,372.047l30.686,-17.716l30.685,17.716l-30.685,17.717l-30.686,-17.717Z" style="fill:#fff;stroke:#ff0090;stroke-width:6.25px;"/><path d="M736.463,389.764l0,141.732l30.685,-17.716l0,-141.733l-30.685,17.717Z" style="fill:#fff;stroke:#ff0090;stroke-width:6.25px;"/><path d="M705.777,372.047l30.686,17.717l0,141.732l-30.686,-17.716l0,-141.733Z" style="fill:#fff;stroke:#ff0090;stroke-width:6.25px;"/></g><g><path d="M736.463,389.764l30.685,-17.717l61.372,35.433l-30.686,17.717l-61.371,-35.433Z" style="fill:#fff;stroke:#ff0090;stroke-width:6.25px;"/><path d="M797.834,425.197l0,141.732l30.686,-17.716l0,-141.733l-30.686,17.717Z" style="fill:#fff;stroke:#ff0090;stroke-width:6.25px;"/><path d="M736.463,389.764l61.371,35.433l0,141.732l-61.371,-35.433l0,-141.732Z" style="fill:#fff;stroke:#ff0090;stroke-width:6.25px;"/></g><g><path d="M521.661,372.047l61.372,-35.433l61.372,35.433l-61.372,35.433l-61.372,-35.433Z" style="fill:#fff;stroke:#ff0090;stroke-width:6.25px;"/><path d="M583.033,407.48l0,141.733l61.372,-35.433l0,-141.733l-61.372,35.433Z" style="fill:#fff;stroke:#ff0090;stroke-width:6.25px;"/><path d="M521.661,372.047l61.372,35.433l0,141.733l-61.372,-35.433l0,-141.733Z" style="fill:#fff;stroke:#ff0090;stroke-width:6.25px;"/></g><g><path d="M675.091,425.197l30.686,-17.717l61.371,35.433l-30.685,17.717l-61.372,-35.433Z" style="fill:#fff;stroke:#ff0090;stroke-width:6.25px;"/><path d="M736.463,460.63l0,141.732l30.685,-17.716l0,-141.733l-30.685,17.717Z" style="fill:#fff;stroke:#ff0090;stroke-width:6.25px;"/><path d="M675.091,425.197l61.372,35.433l0,141.732l-61.372,-35.433l0,-141.732Z" style="fill:#fff;stroke:#ff0090;stroke-width:6.25px;"/></g><g><path d="M613.719,460.63l30.686,-17.717l61.372,35.433l-30.686,17.717l-61.372,-35.433Z" style="fill:#fff;stroke:#ff0090;stroke-width:6.25px;"/><path d="M675.091,496.063l0,141.732l30.686,-17.716l0,-141.733l-30.686,17.717Z" style="fill:#fff;stroke:#ff0090;stroke-width:6.25px;"/><path d="M613.719,460.63l61.372,35.433l0,141.732l-61.372,-35.433l0,-141.732Z" style="fill:#fff;stroke:#ff0090;stroke-width:6.25px;"/></g><g><path d="M490.975,460.63l30.686,-17.717l61.372,35.433l-30.686,17.717l-61.372,-35.433Z" style="fill:#fff;stroke:#ff0090;stroke-width:6.25px;"/><path d="M552.347,496.063l0,141.732l30.686,-17.716l0,-141.733l-30.686,17.717Z" style="fill:#fff;stroke:#ff0090;stroke-width:6.25px;"/><path d="M490.975,460.63l61.372,35.433l0,141.732l-61.372,-35.433l0,-141.732Z" style="fill:#fff;stroke:#ff0090;stroke-width:6.25px;"/></g><g><path d="M736.463,496.063l30.685,-17.717l30.686,17.717l-30.686,17.717l-30.685,-17.717Z" style="fill:#fff;stroke:#ff0090;stroke-width:6.25px;"/><path d="M767.148,513.78l0,141.732l30.686,-17.717l0,-141.732l-30.686,17.717Z" style="fill:#fff;stroke:#ff0090;stroke-width:6.25px;"/><path d="M736.463,496.063l30.685,17.717l0,141.732l-30.685,-17.717l0,-141.732Z" style="fill:#fff;stroke:#ff0090;stroke-width:6.25px;"/></g><g><path d="M767.148,478.346l61.372,-35.433l30.686,17.717l-61.372,35.433l-30.686,-17.717Z" style="fill:#fff;stroke:#ff0090;stroke-width:6.25px;"/><path d="M797.834,496.063l0,141.732l61.372,-35.433l0,-141.732l-61.372,35.433Z" style="fill:#fff;stroke:#ff0090;stroke-width:6.25px;"/><path d="M767.148,478.346l30.686,17.717l0,141.732l-30.686,-17.716l0,-141.733Z" style="fill:#fff;stroke:#ff0090;stroke-width:6.25px;"/></g><g><path d="M797.834,531.496l61.372,-35.433l61.372,35.433l-61.372,35.433l-61.372,-35.433Z" style="fill:#fff;stroke:#ff0090;stroke-width:6.25px;"/><path d="M859.206,566.929l0,141.732l61.372,-35.433l0,-141.732l-61.372,35.433Z" style="fill:#fff;stroke:#ff0090;stroke-width:6.25px;"/><path d="M797.834,531.496l61.372,35.433l0,141.732l-61.372,-35.433l0,-141.732Z" style="fill:#fff;stroke:#ff0090;stroke-width:6.25px;"/></g><g><path d="M460.289,407.48l30.686,-17.716l30.686,17.716l-30.686,17.717l-30.686,-17.717Z" style="fill:#fff;stroke:#ff0090;stroke-width:6.25px;"/><path d="M490.975,425.197l0,141.732l30.686,-17.716l0,-141.733l-30.686,17.717Z" style="fill:#fff;stroke:#ff0090;stroke-width:6.25px;"/><path d="M460.289,407.48l30.686,17.717l0,141.732l-30.686,-17.716l0,-141.733Z" style="fill:#fff;stroke:#ff0090;stroke-width:6.25px;"/></g><g><path d="M490.975,460.63l30.686,-17.717l30.686,17.717l-30.686,17.716l-30.686,-17.716Z" style="fill:#fff;stroke:#ff0090;stroke-width:6.25px;"/><path d="M521.661,478.346l0,141.733l30.686,-17.717l0,-141.732l-30.686,17.716Z" style="fill:#fff;stroke:#ff0090;stroke-width:6.25px;"/><path d="M490.975,460.63l30.686,17.716l0,141.733l-30.686,-17.717l0,-141.732Z" style="fill:#fff;stroke:#ff0090;stroke-width:6.25px;"/></g><g><path d="M521.661,478.346l92.058,-53.149l61.372,35.433l-92.058,53.15l-61.372,-35.434Z" style="fill:#fff;stroke:#ff0090;stroke-width:6.25px;"/><path d="M583.033,513.78l0,141.732l92.058,-53.15l0,-141.732l-92.058,53.15Z" style="fill:#fff;stroke:#ff0090;stroke-width:6.25px;"/><path d="M521.661,478.346l61.372,35.434l0,141.732l-61.372,-35.433l0,-141.733Z" style="fill:#fff;stroke:#ff0090;stroke-width:6.25px;"/></g><g><path d="M644.405,513.78l61.372,-35.434l92.057,53.15l-61.371,35.433l-92.058,-53.149Z" style="fill:#fff;stroke:#ff0090;stroke-width:6.25px;"/><path d="M736.463,566.929l0,141.732l61.371,-35.433l0,-141.732l-61.371,35.433Z" style="fill:#fff;stroke:#ff0090;stroke-width:6.25px;"/><path d="M644.405,513.78l92.058,53.149l0,141.732l-92.058,-53.149l0,-141.732Z" style="fill:#fff;stroke:#ff0090;stroke-width:6.25px;"/></g><g><path d="M613.719,425.197l30.686,-17.717l30.686,17.717l-30.686,17.716l-30.686,-17.716Z" style="fill:#fff;stroke:#ff0090;stroke-width:6.25px;"/><path d="M644.405,442.913l0,141.733l30.686,-17.717l0,-141.732l-30.686,17.716Z" style="fill:#fff;stroke:#ff0090;stroke-width:6.25px;"/><path d="M613.719,425.197l30.686,17.716l0,141.733l-30.686,-17.717l0,-141.732Z" style="fill:#fff;stroke:#ff0090;stroke-width:6.25px;"/></g><g><path d="M644.405,513.78l30.686,-17.717l61.372,35.433l-30.686,17.717l-61.372,-35.433Z" style="fill:#fff;stroke:#ff0090;stroke-width:6.25px;"/><path d="M705.777,549.213l0,141.732l30.686,-17.717l0,-141.732l-30.686,17.717Z" style="fill:#fff;stroke:#ff0090;stroke-width:6.25px;"/><path d="M644.405,513.78l61.372,35.433l0,141.732l-61.372,-35.433l0,-141.732Z" style="fill:#fff;stroke:#ff0090;stroke-width:6.25px;"/></g><g><path d="M583.033,549.213l30.686,-17.717l61.372,35.433l-30.686,17.717l-61.372,-35.433Z" style="fill:#fff;stroke:#ff0090;stroke-width:6.25px;"/><path d="M644.405,584.646l0,141.732l30.686,-17.717l0,-141.732l-30.686,17.717Z" style="fill:#fff;stroke:#ff0090;stroke-width:6.25px;"/><path d="M583.033,549.213l61.372,35.433l0,141.732l-61.372,-35.433l0,-141.732Z" style="fill:#fff;stroke:#ff0090;stroke-width:6.25px;"/></g><g><path d="M644.405,584.646l30.686,-17.717l30.686,17.717l-30.686,17.716l-30.686,-17.716Z" style="fill:#fff;stroke:#ff0090;stroke-width:6.25px;"/><path d="M675.091,602.362l0,141.732l30.686,-17.716l0,-141.732l-30.686,17.716Z" style="fill:#fff;stroke:#ff0090;stroke-width:6.25px;"/><path d="M644.405,584.646l30.686,17.716l0,141.732l-30.686,-17.716l0,-141.732Z" style="fill:#fff;stroke:#ff0090;stroke-width:6.25px;"/></g><g><path d="M705.777,584.646l92.057,-53.15l61.372,35.433l-92.058,53.15l-61.371,-35.433Z" style="fill:#fff;stroke:#ff0090;stroke-width:6.25px;"/><path d="M767.148,620.079l0,141.732l92.058,-53.15l0,-141.732l-92.058,53.15Z" style="fill:#fff;stroke:#ff0090;stroke-width:6.25px;"/><path d="M705.777,584.646l61.371,35.433l0,141.732l-61.371,-35.433l0,-141.732Z" style="fill:#fff;stroke:#ff0090;stroke-width:6.25px;"/></g><g><path d="M583.033,584.646l30.686,-17.717l61.372,35.433l-30.686,17.717l-61.372,-35.433Z" style="fill:#fff;stroke:#ff0090;stroke-width:6.25px;"/><path d="M644.405,620.079l0,141.732l30.686,-17.717l0,-141.732l-30.686,17.717Z" style="fill:#fff;stroke:#ff0090;stroke-width:6.25px;"/><path d="M583.033,584.646l61.372,35.433l0,141.732l-61.372,-35.433l0,-141.732Z" style="fill:#fff;stroke:#ff0090;stroke-width:6.25px;"/></g><g><path d="M398.917,478.346l61.372,-35.433l92.058,53.15l-61.372,35.433l-92.058,-53.15Z" style="fill:#fff;stroke:#ff0090;stroke-width:6.25px;"/><path d="M490.975,531.496l0,141.732l61.372,-35.433l0,-141.732l-61.372,35.433Z" style="fill:#fff;stroke:#ff0090;stroke-width:6.25px;"/><path d="M398.917,478.346l92.058,53.15l0,141.732l-92.058,-53.149l0,-141.733Z" style="fill:#fff;stroke:#ff0090;stroke-width:6.25px;"/></g><g><path d="M490.975,566.929l61.372,-35.433l30.686,17.717l-61.372,35.433l-30.686,-17.717Z" style="fill:#fff;stroke:#ff0090;stroke-width:6.25px;"/><path d="M521.661,584.646l0,141.732l61.372,-35.433l0,-141.732l-61.372,35.433Z" style="fill:#fff;stroke:#ff0090;stroke-width:6.25px;"/><path d="M490.975,566.929l30.686,17.717l0,141.732l-30.686,-17.717l0,-141.732Z" style="fill:#fff;stroke:#ff0090;stroke-width:6.25px;"/></g><g><path d="M368.231,531.496l30.686,-17.716l61.372,35.433l-30.686,17.716l-61.372,-35.433Z" style="fill:#fff;stroke:#ff0090;stroke-width:6.25px;"/><path d="M429.603,566.929l0,141.732l30.686,-17.716l0,-141.732l-30.686,17.716Z" style="fill:#fff;stroke:#ff0090;stroke-width:6.25px;"/><path d="M368.231,531.496l61.372,35.433l0,141.732l-61.372,-35.433l0,-141.732Z" style="fill:#fff;stroke:#ff0090;stroke-width:6.25px;"/></g><g><path d="M429.603,566.929l30.686,-17.716l61.372,35.433l-30.686,17.716l-61.372,-35.433Z" style="fill:#fff;stroke:#ff0090;stroke-width:6.25px;"/><path d="M490.975,602.362l0,141.732l30.686,-17.716l0,-141.732l-30.686,17.716Z" style="fill:#fff;stroke:#ff0090;stroke-width:6.25px;"/><path d="M429.603,566.929l61.372,35.433l0,141.732l-61.372,-35.433l0,-141.732Z" style="fill:#fff;stroke:#ff0090;stroke-width:6.25px;"/></g><g><path d="M490.975,566.929l92.058,-53.149l61.372,35.433l-92.058,53.149l-61.372,-35.433Z" style="fill:#fff;stroke:#ff0090;stroke-width:6.25px;"/><path d="M552.347,602.362l0,141.732l92.058,-53.149l0,-141.732l-92.058,53.149Z" style="fill:#fff;stroke:#ff0090;stroke-width:6.25px;"/><path d="M490.975,566.929l61.372,35.433l0,141.732l-61.372,-35.433l0,-141.732Z" style="fill:#fff;stroke:#ff0090;stroke-width:6.25px;"/></g><g><path d="M613.719,602.362l30.686,-17.716l30.686,17.716l-30.686,17.717l-30.686,-17.717Z" style="fill:#fff;stroke:#ff0090;stroke-width:6.25px;"/><path d="M644.405,620.079l0,141.732l30.686,-17.717l0,-141.732l-30.686,17.717Z" style="fill:#fff;stroke:#ff0090;stroke-width:6.25px;"/><path d="M613.719,602.362l30.686,17.717l0,141.732l-30.686,-17.717l0,-141.732Z" style="fill:#fff;stroke:#ff0090;stroke-width:6.25px;"/></g><g><path d="M644.405,620.079l61.372,-35.433l61.371,35.433l-61.371,35.433l-61.372,-35.433Z" style="fill:#fff;stroke:#ff0090;stroke-width:6.25px;"/><path d="M705.777,655.512l0,141.732l61.371,-35.433l0,-141.732l-61.371,35.433Z" style="fill:#fff;stroke:#ff0090;stroke-width:6.25px;"/><path d="M644.405,620.079l61.372,35.433l0,141.732l-61.372,-35.433l0,-141.732Z" style="fill:#fff;stroke:#ff0090;stroke-width:6.25px;"/></g><g><path d="M552.347,637.795l61.372,-35.433l92.058,53.15l-61.372,35.433l-92.058,-53.15Z" style="fill:#fff;stroke:#ff0090;stroke-width:6.25px;"/><path d="M644.405,690.945l0,141.732l61.372,-35.433l0,-141.732l-61.372,35.433Z" style="fill:#fff;stroke:#ff0090;stroke-width:6.25px;"/><path d="M552.347,637.795l92.058,53.15l0,141.732l-92.058,-53.149l0,-141.733Z" style="fill:#fff;stroke:#ff0090;stroke-width:6.25px;"/></g><g><path d="M644.405,868.11l306.859,-177.165l0,-283.465l-306.859,177.166l0,283.464Z" style="fill:#fff;stroke:#000;stroke-width:8.33px;"/><path d="M337.545,690.945l306.86,177.165l0,-283.464l-306.86,-177.166l0,283.465Z" style="fill:#fff;stroke:#000;stroke-width:8.33px;"/><path d="M951.264,407.48l153.43,88.583l-306.86,177.165l-153.429,-88.582l306.859,-177.166Z" style="fill:#fff;stroke:#000;stroke-width:8.33px;"/><path d="M337.545,407.48l-153.429,88.583l306.859,177.165l153.43,-88.582l-306.86,-177.166Z" style="fill:#fff;stroke:#000;stroke-width:8.33px;"/></g></svg>