<?xml version="1.0" encoding="UTF-8"?>
<svg width="1024px" height="620px" viewBox="0 0 1024 620" version="1.1" xmlns="http://www.w3.org/2000/svg" xmlns:xlink="http://www.w3.org/1999/xlink">
    <!-- Generator: Sketch 52.1 (67048) - http://www.bohemiancoding.com/sketch -->
    <title>visual-computing copy 2</title>
    <desc>Created with Sketch.</desc>
    <g id="visual-computing-copy-2" stroke="none" stroke-width="1" fill="none" fill-rule="evenodd">
        <g id="Group" transform="translate(276.000000, 102.000000)">
            <g transform="translate(0.000000, 30.000000)">
                <ellipse id="Oval" fill="#C7C7C7" cx="236.786667" cy="63.4352397" rx="63.72" ry="63.4352397"></ellipse>
                <path d="M236,2.34945332 C270.613333,2.34945332 299.72,30.5428932 299.72,65.784693 C299.72,101.026493 271.4,129.219933 236,129.219933" id="Shape" fill-opacity="0.1" fill="#000000"></path>
                <g transform="translate(35.645833, 331.844407)" id="Shape">
                    <g>
                        <path d="M24.1408333,110.635969 C22.5675,116.901177 16.2741667,120.816933 9.98083333,120.033782 L9.98083333,120.033782 C3.6875,118.46748 -0.245833333,112.202271 0.540833333,105.937062 L8.4075,8.04317354 C9.98083333,1.77796468 29.6475,0.211662461 35.9408333,1.77796468 L35.9408333,1.77796468 C42.2341667,3.34426689 60.3275,12.7420802 58.7541667,19.007289 L24.1408333,110.635969 L24.1408333,110.635969 Z" fill="#4A4A4A"></path>
                        <path d="M35.9408333,0.994813569 L35.9408333,0.994813569 C42.2341667,2.56111578 60.3275,11.9589291 58.7541667,18.2241379 L24.1408333,109.852817 C22.5675,116.118026 16.2741667,120.033782 9.98083333,119.250631 L9.98083333,119.250631" fill="#000000"></path>
                    </g>
                    <g transform="translate(340.725000, 0.000000)">
                        <path d="M35.8425,110.635969 C37.4158333,116.901177 43.7091667,120.816933 50.0025,120.033782 L50.0025,120.033782 C56.2958333,118.46748 60.2291667,112.202271 59.4425,105.937062 L51.5758333,8.04317354 C50.0025,1.77796468 30.3358333,0.211662461 24.0425,1.77796468 L24.0425,1.77796468 C17.7491667,3.34426689 -0.344166667,12.7420802 1.22916667,19.007289 L35.8425,110.635969 L35.8425,110.635969 Z" fill="#4A4A4A"></path>
                        <path d="M23.2558333,0.994813569 L23.2558333,0.994813569 C16.9625,2.56111578 -1.13083333,11.9589291 0.4425,18.2241379 L35.0558333,109.852817 C36.6291667,116.118026 42.9225,120.033782 49.2158333,119.250631 L49.2158333,119.250631" fill="#000000"></path>
                    </g>
                </g>
                <path d="M472,332.05607 C472,373.563078 434.24,383.744043 392.546667,383.744043 L79.4533333,383.744043 C37.76,383.744043 0,374.346229 0,332.05607 L0,123.737875 C0,82.2308663 37.76,46.9890664 79.4533333,46.9890664 L400.413333,46.9890664 C442.106667,46.9890664 472,82.2308663 472,123.737875 L472,332.05607 L472,332.05607 Z" id="Shape" fill="#00AD2F"></path>
                <path d="M78.6666667,46.9890664 L400.413333,46.9890664 C442.106667,46.9890664 472,82.2308663 472,123.737875 L472,332.05607 C472,373.563078 434.24,383.744043 392.546667,383.744043" id="Shape" fill-opacity="0.1" fill="#FFFFFF"></path>
                <path d="M306.8,289.76591 C306.8,333.622372 271.4,344.586487 226.56,344.586487 L125.866667,344.586487 C81.8133333,344.586487 46.4133333,333.622372 46.4133333,289.76591 L46.4133333,166.811186 C46.4133333,122.954724 81.0266667,86.1466218 125.866667,86.1466218 L226.56,86.1466218 C270.613333,86.1466218 306.8,122.954724 306.8,166.811186 L306.8,289.76591 L306.8,289.76591 Z" id="Shape" fill="#4A4A4A"></path>
                <path d="M47.2,166.811186 C47.2,122.954724 81.8133333,86.1466218 126.653333,86.1466218 L227.346667,86.1466218 C271.4,86.1466218 307.586667,122.954724 307.586667,166.811186 L307.586667,289.76591 C307.586667,333.622372 272.186667,344.586487 227.346667,344.586487" id="Shape" fill-opacity="0.1" fill="#000000"></path>
                <g transform="translate(340.725000, 93.978133)" fill="#FFFFFF" fill-opacity="0.5" id="Shape">
                    <path d="M94.3016667,7.83151107 C94.3016667,12.5304177 90.3683333,15.6630221 86.435,15.6630221 L8.555,15.6630221 C3.835,15.6630221 0.688333333,12.5304177 0.688333333,7.83151107 L0.688333333,7.83151107 C0.688333333,3.13260443 4.62166667,0 8.555,0 L86.435,0 C91.155,0 94.3016667,3.13260443 94.3016667,7.83151107 L94.3016667,7.83151107 L94.3016667,7.83151107 Z"></path>
                    <path d="M94.3016667,46.9890664 C94.3016667,51.6879731 90.3683333,54.8205775 86.435,54.8205775 L8.555,54.8205775 C3.835,54.8205775 0.688333333,51.6879731 0.688333333,46.9890664 L0.688333333,46.9890664 C0.688333333,42.2901598 4.62166667,39.1575554 8.555,39.1575554 L86.435,39.1575554 C91.155,39.1575554 94.3016667,42.2901598 94.3016667,46.9890664 L94.3016667,46.9890664 L94.3016667,46.9890664 Z"></path>
                    <path d="M94.3016667,86.1466218 C94.3016667,90.8455285 90.3683333,93.9781329 86.435,93.9781329 L8.555,93.9781329 C3.835,93.9781329 0.688333333,90.8455285 0.688333333,86.1466218 L0.688333333,86.1466218 C0.688333333,81.4477152 4.62166667,78.3151107 8.555,78.3151107 L86.435,78.3151107 C91.155,78.3151107 94.3016667,81.4477152 94.3016667,86.1466218 L94.3016667,86.1466218 L94.3016667,86.1466218 Z"></path>
                </g>
                <g transform="translate(340.725000, 216.599383)" id="Shape">
                    <path d="M79.355,78.6485842 C61.2616667,96.6610597 32.155,96.6610597 14.0616667,78.6485842 C-4.03166667,60.6361088 -4.03166667,31.6595178 14.0616667,13.6470423 C32.155,-4.36543314 61.2616667,-4.36543314 79.355,13.6470423 C97.4483333,31.6595178 97.4483333,60.6361088 79.355,78.6485842 L79.355,78.6485842 Z" fill="#4951E1"></path>
                    <path d="M79.355,13.6470423 C97.4483333,31.6595178 97.4483333,60.6361088 79.355,78.6485842 C61.2616667,96.6610597 32.155,96.6610597 14.0616667,78.6485842" fill-opacity="0.2" fill="#FFFFFF"></path>
                </g>
            </g>
            <g transform="translate(176.000000, 0.000000)" id="Shape">
                <g>
                    <path d="M1.76326531,10.3230769 C0.195918367,7.18461538 0.979591837,3.26153846 4.11428571,0.907692308 L4.11428571,0.907692308 C7.24897959,-0.661538462 11.1673469,0.123076923 13.5183673,3.26153846 L48.7836735,44.8461538 C50.3510204,47.9846154 43.2979592,55.8307692 40.1632653,58.1846154 L40.1632653,58.1846154 C37.0285714,60.5384615 26.8408163,63.6769231 24.4897959,60.5384615 L1.76326531,10.3230769 L1.76326531,10.3230769 Z" fill="#C7C7C7"></path>
                    <path d="M40.1632653,58.1846154 L40.1632653,58.1846154 C37.0285714,60.5384615 26.8408163,63.6769231 24.4897959,60.5384615 L1.76326531,11.1076923 C0.195918367,7.96923077 0.979591837,4.04615385 4.11428571,1.69230769 L4.11428571,1.69230769" fill-opacity="0.2" fill="#FFFFFF"></path>
                </g>
                <g transform="translate(70.040816, 0.000000)">
                    <path d="M47.7061224,10.3230769 C49.2734694,7.18461538 48.4897959,3.26153846 45.355102,0.907692308 L45.355102,0.907692308 C42.2204082,-0.661538462 38.3020408,0.123076923 35.9510204,3.26153846 L0.685714286,44.8461538 C-0.881632653,47.9846154 6.17142857,55.8307692 9.30612245,58.1846154 L9.30612245,58.1846154 C12.4408163,60.5384615 22.6285714,63.6769231 24.9795918,60.5384615 L47.7061224,10.3230769 L47.7061224,10.3230769 Z" fill="#C7C7C7"></path>
                    <path d="M9.30612245,58.1846154 L9.30612245,58.1846154 C12.4408163,60.5384615 22.6285714,63.6769231 24.9795918,60.5384615 L47.7061224,11.1076923 C49.2734694,7.96923077 48.4897959,4.04615385 45.355102,1.69230769 L45.355102,1.69230769" fill-opacity="0.2" fill="#FFFFFF"></path>
                </g>
            </g>
        </g>
    </g>
</svg>