<?xml version="1.0" encoding="UTF-8" standalone="no"?>
<!DOCTYPE svg PUBLIC "-//W3C//DTD SVG 1.1//EN" "http://www.w3.org/Graphics/SVG/1.1/DTD/svg11.dtd">
<svg width="100%" height="100%" viewBox="0 0 720 73" version="1.1" xmlns="http://www.w3.org/2000/svg" xmlns:xlink="http://www.w3.org/1999/xlink" xml:space="preserve" xmlns:serif="http://www.serif.com/" style="fill-rule:evenodd;clip-rule:evenodd;stroke-linejoin:round;stroke-miterlimit:1.41421;">
    <g transform="matrix(0.24,0,0,0.24,-44.8477,-1356.93)">
        <g transform="matrix(1,0,0,1,0,90)">
            <path d="M306.365,5708.29L336.165,5708.29L328.765,5573.49L288.965,5573.49L274.565,5618.29C270.165,5633.29 265.565,5651.09 261.765,5666.69L261.165,5666.69C258.165,5650.89 253.965,5633.89 249.765,5618.49L236.565,5573.49L195.965,5573.49L187.365,5708.29L215.565,5708.29L217.965,5657.09C218.965,5640.29 219.565,5619.49 220.365,5601.29L220.765,5601.29C223.965,5618.89 228.565,5638.09 232.965,5654.09L247.365,5706.09L271.165,5706.09L287.565,5653.49C292.765,5637.69 298.365,5618.49 302.565,5601.29L303.165,5601.29C303.165,5620.89 303.765,5640.49 304.365,5656.69L306.365,5708.29Z" style="fill-rule:nonzero;stroke:black;stroke-width:1px;"/>
            <path d="M445.565,5669.09C445.965,5666.89 446.565,5662.29 446.565,5657.09C446.565,5632.89 434.565,5608.29 402.965,5608.29C368.965,5608.29 353.565,5635.69 353.565,5660.49C353.565,5691.09 372.565,5710.49 405.765,5710.49C418.965,5710.49 431.165,5708.29 441.165,5704.29L437.165,5683.69C428.965,5686.29 420.565,5687.69 410.165,5687.69C395.965,5687.69 383.565,5681.69 382.565,5669.09L445.565,5669.09ZM382.365,5648.29C383.165,5640.09 388.365,5628.49 401.165,5628.49C415.165,5628.49 418.365,5640.89 418.365,5648.29L382.365,5648.29Z" style="fill-rule:nonzero;stroke:black;stroke-width:1px;"/>
            <path d="M529.165,5566.29L529.165,5619.29L528.765,5619.29C524.365,5612.49 514.965,5608.29 502.965,5608.29C479.565,5608.29 458.965,5627.29 459.165,5660.29C459.165,5690.69 477.765,5710.49 500.965,5710.49C513.565,5710.49 525.365,5704.89 531.565,5693.89L531.965,5693.89L533.365,5708.29L560.365,5708.29C559.965,5701.69 559.565,5690.09 559.565,5679.09L559.565,5566.29L529.165,5566.29ZM529.165,5664.69C529.165,5667.29 528.965,5669.49 528.365,5671.69C526.565,5680.29 519.565,5686.29 510.765,5686.29C498.165,5686.29 489.965,5675.89 489.965,5659.29C489.965,5643.89 497.165,5631.49 510.965,5631.49C520.365,5631.49 526.965,5638.29 528.765,5646.49C528.965,5648.09 529.165,5650.29 529.165,5651.89L529.165,5664.69Z" style="fill-rule:nonzero;stroke:black;stroke-width:1px;"/>
            <path d="M614.365,5708.29L614.365,5610.49L583.965,5610.49L583.965,5708.29L614.365,5708.29ZM599.165,5567.89C589.365,5567.89 582.965,5574.49 583.165,5583.29C582.965,5591.69 589.365,5598.49 598.965,5598.49C608.965,5598.49 615.365,5591.69 615.365,5583.29C615.165,5574.49 608.965,5567.89 599.165,5567.89Z" style="fill-rule:nonzero;stroke:black;stroke-width:1px;"/>
            <path d="M725.165,5669.09C725.565,5666.89 726.165,5662.29 726.165,5657.09C726.165,5632.89 714.165,5608.29 682.565,5608.29C648.565,5608.29 633.165,5635.69 633.165,5660.49C633.165,5691.09 652.165,5710.49 685.365,5710.49C698.565,5710.49 710.765,5708.29 720.765,5704.29L716.765,5683.69C708.565,5686.29 700.165,5687.69 689.765,5687.69C675.565,5687.69 663.165,5681.69 662.165,5669.09L725.165,5669.09ZM661.965,5648.29C662.765,5640.09 667.965,5628.49 680.765,5628.49C694.765,5628.49 697.965,5640.89 697.965,5648.29L661.965,5648.29Z" style="fill-rule:nonzero;stroke:black;stroke-width:1px;"/>
            <path d="M744.365,5708.29L774.765,5708.29L774.765,5651.89C774.765,5649.09 775.165,5646.29 775.965,5644.29C777.965,5638.69 782.965,5632.89 791.365,5632.89C802.365,5632.89 806.765,5641.49 806.765,5654.09L806.765,5708.29L837.165,5708.29L837.165,5650.29C837.165,5621.49 822.165,5608.29 802.165,5608.29C785.965,5608.29 775.965,5617.69 771.965,5623.89L771.365,5623.89L769.965,5610.49L743.565,5610.49C743.965,5619.09 744.365,5629.49 744.365,5641.69L744.365,5708.29Z" style="fill-rule:nonzero;stroke:black;stroke-width:1px;"/>
            <path d="M891.965,5708.29L891.965,5610.49L861.565,5610.49L861.565,5708.29L891.965,5708.29ZM876.765,5567.89C866.965,5567.89 860.565,5574.49 860.765,5583.29C860.565,5591.69 866.965,5598.49 876.565,5598.49C886.565,5598.49 892.965,5591.69 892.965,5583.29C892.765,5574.49 886.565,5567.89 876.765,5567.89Z" style="fill-rule:nonzero;stroke:black;stroke-width:1px;"/>
            <path d="M916.365,5708.29L946.765,5708.29L946.765,5651.89C946.765,5649.09 947.165,5646.29 947.965,5644.29C949.965,5638.69 954.965,5632.89 963.365,5632.89C974.365,5632.89 978.765,5641.49 978.765,5654.09L978.765,5708.29L1009.17,5708.29L1009.17,5650.29C1009.17,5621.49 994.165,5608.29 974.165,5608.29C957.965,5608.29 947.965,5617.69 943.965,5623.89L943.365,5623.89L941.965,5610.49L915.565,5610.49C915.965,5619.09 916.365,5629.49 916.365,5641.69L916.365,5708.29Z" style="fill-rule:nonzero;stroke:black;stroke-width:1px;"/>
            <path d="M1067.57,5708.29L1067.57,5632.89L1086.96,5632.89L1086.96,5610.49L1067.37,5610.49L1067.37,5605.49C1067.37,5595.89 1071.57,5588.09 1081.57,5588.09C1085.57,5588.09 1088.77,5588.69 1091.37,5589.49L1092.57,5566.09C1088.37,5564.89 1083.16,5564.09 1076.37,5564.09C1067.57,5564.09 1056.96,5566.69 1049.37,5573.89C1040.57,5581.89 1036.96,5594.89 1036.96,5606.69L1036.96,5610.49L1024.16,5610.49L1024.16,5632.89L1036.96,5632.89L1036.96,5708.29L1067.57,5708.29Z" style="fill-rule:nonzero;stroke:black;stroke-width:1px;"/>
            <path d="M1146.37,5608.29C1114.96,5608.29 1094.16,5628.49 1094.16,5660.09C1094.16,5691.69 1116.16,5710.49 1144.77,5710.49C1170.96,5710.49 1196.37,5694.09 1196.37,5658.29C1196.37,5628.89 1176.37,5608.29 1146.37,5608.29ZM1145.57,5629.89C1159.37,5629.89 1164.96,5644.69 1164.96,5659.29C1164.96,5676.89 1157.37,5688.69 1145.57,5688.69C1132.57,5688.69 1125.57,5676.09 1125.57,5659.29C1125.57,5644.89 1130.96,5629.89 1145.57,5629.89Z" style="fill-rule:nonzero;stroke:black;stroke-width:1px;"/>
            <path d="M1215.16,5708.29L1245.57,5708.29L1245.57,5658.69C1245.57,5656.29 1245.77,5653.89 1246.16,5651.89C1248.16,5642.49 1255.77,5636.49 1266.96,5636.49C1270.37,5636.49 1272.96,5636.89 1275.16,5637.49L1275.16,5608.69C1272.96,5608.29 1271.57,5608.29 1268.77,5608.29C1259.37,5608.29 1247.37,5614.29 1242.37,5628.49L1241.57,5628.49L1240.57,5610.49L1214.37,5610.49C1214.77,5618.89 1215.16,5628.29 1215.16,5642.69L1215.16,5708.29Z" style="fill-rule:nonzero;stroke:black;stroke-width:1px;"/>
            <path d="M1291.16,5708.29L1320.77,5708.29L1320.77,5651.29C1320.77,5648.89 1320.96,5646.09 1321.96,5643.69C1323.77,5638.69 1328.37,5632.69 1336.16,5632.69C1345.77,5632.69 1350.16,5641.09 1350.16,5653.49L1350.16,5708.29L1379.77,5708.29L1379.77,5651.09C1379.77,5648.69 1380.16,5645.49 1380.96,5643.29C1382.96,5637.49 1387.96,5632.69 1394.96,5632.69C1404.77,5632.69 1409.37,5640.89 1409.37,5655.09L1409.37,5708.29L1438.96,5708.29L1438.96,5650.69C1438.96,5621.49 1424.77,5608.29 1405.96,5608.29C1398.77,5608.29 1392.77,5609.89 1387.37,5613.09C1382.77,5615.89 1378.37,5619.69 1374.77,5624.89L1374.37,5624.89C1370.16,5614.69 1360.16,5608.29 1347.57,5608.29C1330.77,5608.29 1322.16,5617.49 1317.96,5623.69L1317.37,5623.69L1315.96,5610.49L1290.37,5610.49C1290.77,5619.09 1291.16,5629.49 1291.16,5641.69L1291.16,5708.29Z" style="fill-rule:nonzero;stroke:black;stroke-width:1px;"/>
            <path d="M1544.77,5650.49C1544.77,5627.49 1534.37,5608.29 1501.77,5608.29C1483.96,5608.29 1470.57,5613.09 1463.77,5616.89L1469.37,5636.49C1475.77,5632.49 1486.37,5629.09 1496.37,5629.09C1511.37,5629.09 1514.16,5636.49 1514.16,5641.69L1514.16,5643.09C1479.57,5642.89 1456.77,5655.09 1456.77,5680.49C1456.77,5696.09 1468.57,5710.49 1488.37,5710.49C1499.96,5710.49 1509.96,5706.29 1516.37,5698.49L1516.96,5698.49L1518.77,5708.29L1546.16,5708.29C1545.16,5702.89 1544.77,5693.89 1544.77,5684.49L1544.77,5650.49ZM1515.16,5672.69C1515.16,5674.49 1514.96,5676.29 1514.57,5677.89C1512.57,5684.09 1506.37,5689.09 1498.77,5689.09C1491.96,5689.09 1486.77,5685.29 1486.77,5677.49C1486.77,5665.69 1499.16,5661.89 1515.16,5662.09L1515.16,5672.69Z" style="fill-rule:nonzero;stroke:black;stroke-width:1px;"/>
            <path d="M1571.37,5592.09L1571.37,5610.49L1558.37,5610.49L1558.37,5632.89L1571.37,5632.89L1571.37,5672.89C1571.37,5686.69 1574.16,5696.09 1579.77,5701.89C1584.57,5706.89 1592.77,5710.49 1602.57,5710.49C1611.16,5710.49 1618.37,5709.29 1622.37,5707.69L1622.16,5684.69C1619.16,5685.29 1617.37,5685.49 1613.16,5685.49C1603.97,5685.49 1601.16,5680.09 1601.16,5668.29L1601.16,5632.89L1622.97,5632.89L1622.97,5610.49L1601.16,5610.49L1601.16,5583.89L1571.37,5592.09Z" style="fill-rule:nonzero;stroke:black;stroke-width:1px;"/>
            <path d="M1670.97,5708.29L1670.97,5610.49L1640.57,5610.49L1640.57,5708.29L1670.97,5708.29ZM1655.77,5567.89C1645.97,5567.89 1639.57,5574.49 1639.77,5583.29C1639.57,5591.69 1645.97,5598.49 1655.57,5598.49C1665.57,5598.49 1671.97,5591.69 1671.97,5583.29C1671.77,5574.49 1665.57,5567.89 1655.77,5567.89Z" style="fill-rule:nonzero;stroke:black;stroke-width:1px;"/>
            <path d="M1725.77,5566.29L1695.37,5566.29L1695.37,5708.29L1725.77,5708.29L1725.77,5677.69L1733.57,5668.09L1757.16,5708.29L1794.57,5708.29L1754.57,5650.09L1789.57,5610.49L1752.97,5610.49L1733.16,5639.89C1730.77,5643.69 1728.37,5647.69 1726.16,5651.69L1725.77,5651.69L1725.77,5566.29Z" style="fill-rule:nonzero;stroke:black;stroke-width:1px;"/>
            <path d="M1839.97,5702.09C1847.57,5706.29 1862.77,5710.49 1878.16,5710.49C1915.16,5710.49 1932.57,5691.09 1932.57,5668.49C1932.57,5649.49 1921.37,5637.09 1897.57,5628.29C1880.16,5621.69 1872.57,5617.89 1872.57,5609.29C1872.57,5602.29 1878.97,5596.29 1892.16,5596.29C1905.37,5596.29 1914.97,5600.09 1920.37,5602.69L1927.16,5578.09C1919.16,5574.49 1907.97,5571.29 1892.77,5571.29C1860.97,5571.29 1841.77,5588.89 1841.77,5611.89C1841.77,5631.49 1856.37,5643.89 1878.77,5651.69C1894.97,5657.49 1901.37,5662.29 1901.37,5670.69C1901.37,5679.49 1893.97,5685.29 1879.97,5685.29C1866.97,5685.29 1854.37,5681.09 1846.16,5676.89L1839.97,5702.09Z" style="fill-rule:nonzero;stroke:black;stroke-width:1px;"/>
            <path d="M1951.37,5708.29L1981.77,5708.29L1981.77,5650.29C1981.77,5648.09 1981.97,5645.49 1982.77,5643.49C1984.97,5638.09 1989.97,5632.89 1997.97,5632.89C2009.37,5632.89 2013.77,5641.69 2013.77,5654.49L2013.77,5708.29L2044.16,5708.29L2044.16,5651.09C2044.16,5621.69 2029.37,5608.29 2009.97,5608.29C2004.37,5608.29 1998.77,5609.69 1994.16,5612.09C1989.37,5614.49 1985.37,5617.89 1982.16,5622.09L1981.77,5622.09L1981.77,5566.29L1951.37,5566.29L1951.37,5708.29Z" style="fill-rule:nonzero;stroke:black;stroke-width:1px;"/>
            <path d="M2115.16,5608.29C2083.76,5608.29 2062.97,5628.49 2062.97,5660.09C2062.97,5691.69 2084.97,5710.49 2113.57,5710.49C2139.76,5710.49 2165.16,5694.09 2165.16,5658.29C2165.16,5628.89 2145.16,5608.29 2115.16,5608.29ZM2114.37,5629.89C2128.16,5629.89 2133.76,5644.69 2133.76,5659.29C2133.76,5676.89 2126.16,5688.69 2114.37,5688.69C2101.37,5688.69 2094.37,5676.09 2094.37,5659.29C2094.37,5644.89 2099.76,5629.89 2114.37,5629.89Z" style="fill-rule:nonzero;stroke:black;stroke-width:1px;"/>
            <path d="M2172.16,5610.49L2200.57,5708.29L2229.16,5708.29L2238.97,5673.89C2241.57,5664.89 2243.57,5655.69 2245.37,5643.49L2245.76,5643.49C2247.76,5655.69 2249.57,5664.29 2251.97,5673.89L2261.16,5708.29L2289.76,5708.29L2319.76,5610.49L2289.97,5610.49L2281.57,5649.29C2279.37,5660.49 2277.37,5671.49 2275.97,5682.69L2275.57,5682.69C2273.57,5671.49 2270.97,5660.49 2268.37,5649.49L2258.57,5610.49L2234.57,5610.49L2224.16,5650.69C2221.76,5660.29 2218.97,5671.49 2216.97,5682.69L2216.57,5682.69C2214.97,5671.49 2212.97,5660.49 2210.97,5650.49L2203.16,5610.49L2172.16,5610.49Z" style="fill-rule:nonzero;stroke:black;stroke-width:1px;"/>
            <path d="M2400.76,5683.29C2396.16,5685.29 2390.57,5686.49 2383.37,5686.49C2368.57,5686.49 2356.57,5677.09 2356.57,5659.09C2356.37,5643.09 2366.76,5631.69 2382.76,5631.69C2390.76,5631.69 2396.16,5633.09 2399.76,5634.69L2404.57,5612.09C2398.16,5609.69 2389.37,5608.29 2381.37,5608.29C2344.97,5608.29 2325.37,5631.69 2325.37,5660.29C2325.37,5691.09 2345.57,5710.49 2377.16,5710.49C2388.76,5710.49 2398.97,5708.29 2404.37,5705.89L2400.76,5683.29Z" style="fill-rule:nonzero;stroke:black;stroke-width:1px;"/>
            <path d="M2503.57,5650.49C2503.57,5627.49 2493.16,5608.29 2460.57,5608.29C2442.76,5608.29 2429.37,5613.09 2422.57,5616.89L2428.16,5636.49C2434.57,5632.49 2445.16,5629.09 2455.16,5629.09C2470.16,5629.09 2472.97,5636.49 2472.97,5641.69L2472.97,5643.09C2438.37,5642.89 2415.57,5655.09 2415.57,5680.49C2415.57,5696.09 2427.37,5710.49 2447.16,5710.49C2458.76,5710.49 2468.76,5706.29 2475.16,5698.49L2475.76,5698.49L2477.57,5708.29L2504.97,5708.29C2503.97,5702.89 2503.57,5693.89 2503.57,5684.49L2503.57,5650.49ZM2473.97,5672.69C2473.97,5674.49 2473.76,5676.29 2473.37,5677.89C2471.37,5684.09 2465.16,5689.09 2457.57,5689.09C2450.76,5689.09 2445.57,5685.29 2445.57,5677.49C2445.57,5665.69 2457.97,5661.89 2473.97,5662.09L2473.97,5672.69Z" style="fill-rule:nonzero;stroke:black;stroke-width:1px;"/>
            <path d="M2521.97,5703.49C2529.37,5707.49 2540.76,5710.49 2553.57,5710.49C2581.57,5710.49 2595.97,5696.89 2595.97,5678.69C2595.76,5664.29 2587.97,5654.89 2569.37,5648.49C2557.37,5644.29 2553.57,5641.89 2553.57,5637.29C2553.57,5632.29 2557.76,5629.29 2565.16,5629.29C2573.57,5629.29 2581.97,5632.49 2586.37,5634.89L2591.76,5613.89C2585.76,5610.89 2575.57,5608.29 2564.16,5608.29C2539.97,5608.29 2524.37,5622.09 2524.37,5640.49C2524.16,5651.89 2531.97,5662.89 2552.16,5669.69C2563.57,5673.49 2566.57,5675.89 2566.57,5680.89C2566.57,5685.89 2562.76,5689.09 2553.57,5689.09C2544.57,5689.09 2532.97,5685.09 2527.37,5681.69L2521.97,5703.49Z" style="fill-rule:nonzero;stroke:black;stroke-width:1px;"/>
            <path d="M2700.76,5669.09C2701.16,5666.89 2701.76,5662.29 2701.76,5657.09C2701.76,5632.89 2689.76,5608.29 2658.16,5608.29C2624.16,5608.29 2608.76,5635.69 2608.76,5660.49C2608.76,5691.09 2627.76,5710.49 2660.97,5710.49C2674.16,5710.49 2686.37,5708.29 2696.37,5704.29L2692.37,5683.69C2684.16,5686.29 2675.76,5687.69 2665.37,5687.69C2651.16,5687.69 2638.76,5681.69 2637.76,5669.09L2700.76,5669.09ZM2637.57,5648.29C2638.37,5640.09 2643.57,5628.49 2656.37,5628.49C2670.37,5628.49 2673.57,5640.89 2673.57,5648.29L2637.57,5648.29Z" style="fill-rule:nonzero;stroke:black;stroke-width:1px;"/>
            <path d="M2848.76,5708.29L2848.76,5683.29L2799.76,5683.29L2799.76,5682.89L2811.76,5672.89C2830.57,5656.09 2846.37,5638.69 2846.37,5616.89C2846.37,5593.29 2830.16,5576.09 2800.76,5576.09C2783.16,5576.09 2767.97,5582.09 2758.16,5589.49L2766.76,5611.29C2773.57,5606.09 2783.37,5600.49 2794.57,5600.49C2809.57,5600.49 2815.97,5608.89 2815.97,5619.49C2815.57,5634.69 2801.76,5649.29 2773.37,5674.69L2756.57,5689.89L2756.57,5708.29L2848.76,5708.29Z" style="fill-rule:nonzero;stroke:black;stroke-width:1px;"/>
            <path d="M2915.16,5576.09C2881.57,5576.09 2865.57,5605.89 2865.57,5643.49C2865.76,5680.29 2880.57,5710.49 2914.16,5710.49C2947.37,5710.49 2963.57,5682.89 2963.57,5642.69C2963.57,5607.09 2949.97,5576.09 2915.16,5576.09ZM2914.76,5599.09C2926.97,5599.09 2933.16,5614.29 2933.16,5643.09C2933.16,5672.69 2926.76,5687.49 2914.97,5687.49C2903.16,5687.49 2895.97,5673.29 2896.16,5643.49C2895.97,5613.29 2903.57,5599.09 2914.76,5599.09Z" style="fill-rule:nonzero;stroke:black;stroke-width:1px;"/>
            <path d="M3017.37,5708.29L3046.76,5708.29L3046.76,5578.29L3021.57,5578.29L2987.16,5594.29L2992.16,5617.09L3016.97,5605.29L3017.37,5605.29L3017.37,5708.29Z" style="fill-rule:nonzero;stroke:black;stroke-width:1px;"/>
            <path d="M3110.76,5641.69C3096.57,5647.89 3087.57,5658.69 3087.57,5674.29C3087.57,5691.89 3102.76,5710.49 3135.76,5710.49C3165.97,5710.49 3185.76,5694.69 3185.76,5671.09C3185.76,5654.29 3174.57,5643.49 3161.97,5638.69L3161.97,5638.09C3174.76,5631.69 3180.76,5620.69 3180.76,5609.49C3180.76,5593.69 3168.16,5576.09 3137.76,5576.09C3111.76,5576.09 3091.97,5590.69 3091.97,5612.69C3091.97,5624.09 3098.16,5634.69 3110.76,5641.09L3110.76,5641.69ZM3136.97,5689.49C3125.57,5689.49 3118.37,5680.69 3118.57,5671.29C3118.57,5661.89 3124.37,5654.69 3134.37,5651.89C3146.37,5655.09 3154.76,5661.89 3154.76,5673.29C3154.76,5682.49 3147.76,5689.49 3136.97,5689.49ZM3136.37,5596.69C3147.57,5596.69 3152.16,5604.69 3152.16,5612.69C3152.16,5620.89 3145.97,5627.29 3138.97,5629.29C3128.57,5626.09 3120.57,5620.49 3120.57,5611.69C3120.57,5603.49 3125.97,5596.69 3136.37,5596.69Z" style="fill-rule:nonzero;stroke:black;stroke-width:1px;"/>
        </g>
        <g transform="matrix(1,0,0,1,177.165,5850.71)">
            <path d="M29.5,88.75L47.875,88.75L47.875,7.5L32.125,7.5L10.625,17.5L13.75,31.75L29.25,24.375L29.5,24.375L29.5,88.75Z" style="fill:rgb(181,44,207);fill-rule:nonzero;stroke:black;stroke-width:1px;"/>
            <path d="M98.875,88.75L117.25,88.75L117.25,7.5L101.5,7.5L80,17.5L83.125,31.75L98.625,24.375L98.875,24.375L98.875,88.75Z" style="fill:rgb(181,44,207);fill-rule:nonzero;stroke:black;stroke-width:1px;"/>
            <path d="M156.125,90.125C162.875,90.125 167.375,85.25 167.375,78.625C167.375,71.75 162.875,67 156.25,67C149.625,67 145,71.875 145,78.625C145,85.25 149.625,90.125 156,90.125L156.125,90.125Z" style="fill:rgb(181,44,207);fill-rule:nonzero;stroke:black;stroke-width:1px;"/>
            <path d="M204.75,88.375C209.5,89 216.5,89.625 226.375,89.625C242.875,89.625 256.375,86.125 265.25,78.75C273.375,71.875 279.25,60.75 279.25,44.625C279.25,29.75 273.75,19.375 265,12.875C256.875,6.75 246.5,3.875 230.5,3.875C220.875,3.875 211.75,4.5 204.75,5.625L204.75,88.375ZM223.875,19.25C225.5,18.875 228.25,18.5 232.5,18.5C248.875,18.5 259.125,27.75 259,45.25C259,65.375 247.75,74.875 230.5,74.75C228.125,74.75 225.5,74.75 223.875,74.375L223.875,19.25Z" style="fill:rgb(181,44,207);fill-rule:nonzero;stroke:black;stroke-width:1px;"/>
            <path d="M345.125,64.25C345.375,62.875 345.75,60 345.75,56.75C345.75,41.625 338.25,26.25 318.5,26.25C297.25,26.25 287.625,43.375 287.625,58.875C287.625,78 299.5,90.125 320.25,90.125C328.5,90.125 336.125,88.75 342.375,86.25L339.875,73.375C334.75,75 329.5,75.875 323,75.875C314.125,75.875 306.375,72.125 305.75,64.25L345.125,64.25ZM305.625,51.25C306.125,46.125 309.375,38.875 317.375,38.875C326.125,38.875 328.125,46.625 328.125,51.25L305.625,51.25Z" style="fill:rgb(181,44,207);fill-rule:nonzero;stroke:black;stroke-width:1px;"/>
            <path d="M352.25,88.75L405.375,88.75L405.375,73.625L376,73.625L376,73.375C379.5,70 382.625,66.125 386,62.125L404.375,39L404.375,27.625L354.375,27.625L354.375,42.625L381.25,42.625L381.25,42.875C377.75,46.625 375,49.625 371.5,53.75L352.25,77.875L352.25,88.75Z" style="fill:rgb(181,44,207);fill-rule:nonzero;stroke:black;stroke-width:1px;"/>
            <path d="M468.875,64.25C469.125,62.875 469.5,60 469.5,56.75C469.5,41.625 462,26.25 442.25,26.25C421,26.25 411.375,43.375 411.375,58.875C411.375,78 423.25,90.125 444,90.125C452.25,90.125 459.875,88.75 466.125,86.25L463.625,73.375C458.5,75 453.25,75.875 446.75,75.875C437.875,75.875 430.125,72.125 429.5,64.25L468.875,64.25ZM429.375,51.25C429.875,46.125 433.125,38.875 441.125,38.875C449.875,38.875 451.875,46.625 451.875,51.25L429.375,51.25Z" style="fill:rgb(181,44,207);fill-rule:nonzero;stroke:black;stroke-width:1px;"/>
            <path d="M480.875,88.75L499.375,88.75L499.375,53.125C499.375,51.625 499.5,49.875 500.125,48.375C501.25,45.25 504.125,41.5 509,41.5C515,41.5 517.75,46.75 517.75,54.5L517.75,88.75L536.25,88.75L536.25,53C536.25,51.5 536.5,49.5 537,48.125C538.25,44.5 541.375,41.5 545.75,41.5C551.875,41.5 554.75,46.625 554.75,55.5L554.75,88.75L573.25,88.75L573.25,52.75C573.25,34.5 564.375,26.25 552.625,26.25C548.125,26.25 544.375,27.25 541,29.25C538.125,31 535.375,33.375 533.125,36.625L532.875,36.625C530.25,30.25 524,26.25 516.125,26.25C505.625,26.25 500.25,32 497.625,35.875L497.25,35.875L496.375,27.625L480.375,27.625C480.625,33 480.875,39.5 480.875,47.125L480.875,88.75Z" style="fill:rgb(181,44,207);fill-rule:nonzero;stroke:black;stroke-width:1px;"/>
            <path d="M588.375,70.5C588.375,77.375 588.125,84.75 587.875,88.75L604,88.75L604.75,80.25L605,80.25C609.375,87.5 616.25,90.125 623.375,90.125C637.375,90.125 651.375,79.125 651.375,57.125C651.5,38.375 640.75,26.25 626.125,26.25C617.625,26.25 611.25,29.625 607.625,34.875L607.375,34.875L607.375,0L588.375,0L588.375,70.5ZM607.375,53.75C607.375,52.5 607.5,51.375 607.75,50.25C609,44.75 613.75,40.875 618.875,40.875C627.75,40.875 632,48.375 632,57.875C632,68.875 627,75.125 618.875,75.125C613.375,75.125 609,71.25 607.75,66.125C607.5,65.125 607.375,64 607.375,62.75L607.375,53.75Z" style="fill:rgb(181,44,207);fill-rule:nonzero;stroke:black;stroke-width:1px;"/>
            <path d="M717.5,64.25C717.75,62.875 718.125,60 718.125,56.75C718.125,41.625 710.625,26.25 690.875,26.25C669.625,26.25 660,43.375 660,58.875C660,78 671.875,90.125 692.625,90.125C700.875,90.125 708.5,88.75 714.75,86.25L712.25,73.375C707.125,75 701.875,75.875 695.375,75.875C686.5,75.875 678.75,72.125 678.125,64.25L717.5,64.25ZM678,51.25C678.5,46.125 681.75,38.875 689.75,38.875C698.5,38.875 700.5,46.625 700.5,51.25L678,51.25Z" style="fill:rgb(181,44,207);fill-rule:nonzero;stroke:black;stroke-width:1px;"/>
            <path d="M729.5,88.75L748.5,88.75L748.5,57.75C748.5,56.25 748.625,54.75 748.875,53.5C750.125,47.625 754.875,43.875 761.875,43.875C764,43.875 765.625,44.125 767,44.5L767,26.5C765.625,26.25 764.75,26.25 763,26.25C757.125,26.25 749.625,30 746.5,38.875L746,38.875L745.375,27.625L729,27.625C729.25,32.875 729.5,38.75 729.5,47.75L729.5,88.75Z" style="fill:rgb(181,44,207);fill-rule:nonzero;stroke:black;stroke-width:1px;"/>
            <path d="M857.5,88.75L857.5,73.125L826.875,73.125L826.875,72.875L834.375,66.625C846.125,56.125 856,45.25 856,31.625C856,16.875 845.875,6.125 827.5,6.125C816.5,6.125 807,9.875 800.875,14.5L806.25,28.125C810.5,24.875 816.625,21.375 823.625,21.375C833,21.375 837,26.625 837,33.25C836.75,42.75 828.125,51.875 810.375,67.75L799.875,77.25L799.875,88.75L857.5,88.75Z" style="fill:rgb(181,44,207);fill-rule:nonzero;stroke:black;stroke-width:1px;"/>
            <path d="M899,6.125C878,6.125 868,24.75 868,48.25C868.125,71.25 877.375,90.125 898.375,90.125C919.125,90.125 929.25,72.875 929.25,47.75C929.25,25.5 920.75,6.125 899,6.125ZM898.75,20.5C906.375,20.5 910.25,30 910.25,48C910.25,66.5 906.25,75.75 898.875,75.75C891.5,75.75 887,66.875 887.125,48.25C887,29.375 891.75,20.5 898.75,20.5Z" style="fill:rgb(181,44,207);fill-rule:nonzero;stroke:black;stroke-width:1px;"/>
            <path d="M962.875,88.75L981.25,88.75L981.25,7.5L965.5,7.5L944,17.5L947.125,31.75L962.625,24.375L962.875,24.375L962.875,88.75Z" style="fill:rgb(181,44,207);fill-rule:nonzero;stroke:black;stroke-width:1px;"/>
            <path d="M1021.25,47.125C1012.38,51 1006.75,57.75 1006.75,67.5C1006.75,78.5 1016.25,90.125 1036.88,90.125C1055.75,90.125 1068.12,80.25 1068.12,65.5C1068.12,55 1061.12,48.25 1053.25,45.25L1053.25,44.875C1061.25,40.875 1065,34 1065,27C1065,17.125 1057.12,6.125 1038.12,6.125C1021.88,6.125 1009.5,15.25 1009.5,29C1009.5,36.125 1013.38,42.75 1021.25,46.75L1021.25,47.125ZM1037.62,77C1030.5,77 1026,71.5 1026.12,65.625C1026.12,59.75 1029.75,55.25 1036,53.5C1043.5,55.5 1048.75,59.75 1048.75,66.875C1048.75,72.625 1044.38,77 1037.62,77ZM1037.25,19C1044.25,19 1047.12,24 1047.12,29C1047.12,34.125 1043.25,38.125 1038.88,39.375C1032.38,37.375 1027.38,33.875 1027.38,28.375C1027.38,23.25 1030.75,19 1037.25,19Z" style="fill:rgb(181,44,207);fill-rule:nonzero;stroke:black;stroke-width:1px;"/>
            <path d="M1085,102.5C1091,92.75 1096.62,79.625 1100.75,66.875L1081.38,68.125C1079.62,79.5 1076.25,92.5 1072.38,103.625L1085,102.5Z" style="fill:rgb(181,44,207);fill-rule:nonzero;stroke:black;stroke-width:1px;"/>
            <path d="M1159.38,88.75L1177.75,88.75L1177.75,7.5L1162,7.5L1140.5,17.5L1143.62,31.75L1159.12,24.375L1159.38,24.375L1159.38,88.75Z" style="fill:rgb(181,44,207);fill-rule:nonzero;stroke:black;stroke-width:1px;"/>
            <path d="M1204,84.375C1208.75,87.375 1217.62,90.125 1228.12,90.125C1248.75,90.125 1261.38,79.625 1261.38,65.25C1261.38,54.625 1253.5,47.25 1243.75,45.5L1243.75,45.25C1253.75,41.75 1258.62,35 1258.62,26.375C1258.62,15.25 1249,6.125 1231.62,6.125C1221.12,6.125 1211.38,9.125 1206.5,12.25L1210.38,26C1213.75,24 1220.75,21.125 1227.38,21.125C1235.38,21.125 1239.38,24.75 1239.38,29.625C1239.38,36.5 1231.25,38.875 1224.88,39L1217.5,39L1217.5,52.625L1225.25,52.625C1233.62,52.625 1241.62,56.25 1241.62,64.25C1241.62,70.375 1236.62,75.125 1226.75,75.125C1219,75.125 1211.25,71.875 1207.88,70.125L1204,84.375Z" style="fill:rgb(181,44,207);fill-rule:nonzero;stroke:black;stroke-width:1px;"/>
            <path d="M1286,49.75C1292.75,49.75 1297.25,44.875 1297.25,38.375C1297.12,31.5 1292.75,26.875 1286.12,26.875C1279.5,26.875 1274.88,31.625 1274.88,38.375C1274.88,44.875 1279.5,49.75 1285.88,49.75L1286,49.75ZM1286,90.125C1292.75,90.125 1297.25,85.25 1297.25,78.75C1297.12,71.875 1292.75,67.25 1286.12,67.25C1279.5,67.25 1274.88,72 1274.88,78.75C1274.88,85.25 1279.5,90.125 1285.88,90.125L1286,90.125Z" style="fill:rgb(181,44,207);fill-rule:nonzero;stroke:black;stroke-width:1px;"/>
            <path d="M1336.12,6.125C1315.12,6.125 1305.12,24.75 1305.12,48.25C1305.25,71.25 1314.5,90.125 1335.5,90.125C1356.25,90.125 1366.38,72.875 1366.38,47.75C1366.38,25.5 1357.88,6.125 1336.12,6.125ZM1335.88,20.5C1343.5,20.5 1347.38,30 1347.38,48C1347.38,66.5 1343.38,75.75 1336,75.75C1328.62,75.75 1324.12,66.875 1324.25,48.25C1324.12,29.375 1328.88,20.5 1335.88,20.5Z" style="fill:rgb(181,44,207);fill-rule:nonzero;stroke:black;stroke-width:1px;"/>
            <path d="M1405.5,6.125C1384.5,6.125 1374.5,24.75 1374.5,48.25C1374.62,71.25 1383.88,90.125 1404.88,90.125C1425.62,90.125 1435.75,72.875 1435.75,47.75C1435.75,25.5 1427.25,6.125 1405.5,6.125ZM1405.25,20.5C1412.88,20.5 1416.75,30 1416.75,48C1416.75,66.5 1412.75,75.75 1405.38,75.75C1398,75.75 1393.5,66.875 1393.62,48.25C1393.5,29.375 1398.25,20.5 1405.25,20.5Z" style="fill:rgb(181,44,207);fill-rule:nonzero;stroke:black;stroke-width:1px;"/>
            <path d="M1473.25,4.5L1473.25,51.5C1473.25,78.375 1485.75,90.125 1507,90.125C1529,90.125 1542.12,77.75 1542.12,51.75L1542.12,4.5L1523.12,4.5L1523.12,53C1523.12,67.875 1517.62,74.875 1507.62,74.875C1497.88,74.875 1492.38,67.5 1492.38,53L1492.38,4.5L1473.25,4.5Z" style="fill:rgb(181,44,207);fill-rule:nonzero;stroke:black;stroke-width:1px;"/>
            <path d="M1558,88.75L1577,88.75L1577,52.5C1577,51.125 1577.12,49.5 1577.62,48.25C1579,44.875 1582.12,41.625 1587.12,41.625C1594.25,41.625 1597,47.125 1597,55.125L1597,88.75L1616,88.75L1616,53C1616,34.625 1606.75,26.25 1594.62,26.25C1591.12,26.25 1587.62,27.125 1584.75,28.625C1581.75,30.125 1579.25,32.25 1577.25,34.875L1577,34.875L1577,0L1558,0L1558,88.75Z" style="fill:rgb(181,44,207);fill-rule:nonzero;stroke:black;stroke-width:1px;"/>
            <path d="M1631.25,88.75L1650.25,88.75L1650.25,57.75C1650.25,56.25 1650.38,54.75 1650.62,53.5C1651.88,47.625 1656.62,43.875 1663.62,43.875C1665.75,43.875 1667.38,44.125 1668.75,44.5L1668.75,26.5C1667.38,26.25 1666.5,26.25 1664.75,26.25C1658.88,26.25 1651.38,30 1648.25,38.875L1647.75,38.875L1647.12,27.625L1630.75,27.625C1631,32.875 1631.25,38.75 1631.25,47.75L1631.25,88.75Z" style="fill:rgb(181,44,207);fill-rule:nonzero;stroke:black;stroke-width:1px;"/>
        </g>
    </g>
</svg>
