<svg width="600" height="480" viewBox="0 0 600 480" fill="none" xmlns="http://www.w3.org/2000/svg">
<rect width="600" height="480" fill="white"/>
<path d="M448.676 45.5801C448.332 44.3083 447.66 43.1487 446.729 42.2171C445.797 41.2854 444.637 40.614 443.366 40.2698C438.71 39 419.97 39 419.97 39C419.97 39 401.23 39.0385 396.574 40.3083C395.302 40.6525 394.142 41.3238 393.211 42.2555C392.279 43.1872 391.608 44.3467 391.263 45.6186C389.855 53.8918 389.309 66.498 391.302 74.4403C391.646 75.7121 392.317 76.8717 393.249 77.8033C394.181 78.735 395.34 79.4064 396.612 79.7506C401.268 81.0204 420.008 81.0204 420.008 81.0204C420.008 81.0204 438.748 81.0204 443.404 79.7506C444.676 79.4064 445.835 78.735 446.767 77.8033C447.699 76.8717 448.37 75.7121 448.714 74.4403C450.2 66.1555 450.658 53.5571 448.676 45.5801Z" fill="#FF0000"/>
<path d="M414.005 69.0146L429.551 60.0102L414.005 51.0059V69.0146Z" fill="white"/>
<path d="M564.053 87.0375C565.701 87.0375 567.037 85.7011 567.037 84.0528V35.9469C567.037 34.2983 565.701 32.9624 564.053 32.9624H515.947C514.299 32.9624 512.963 34.2983 512.963 35.9469V84.0528C512.963 85.7009 514.298 87.0375 515.947 87.0375H564.053Z" fill="#3C5A99"/>
<path d="M550.273 87.0379V66.097H557.302L558.355 57.936H550.273V52.7257C550.273 50.3629 550.93 48.7527 554.318 48.7527L558.639 48.7508V41.4515C557.892 41.3521 555.327 41.1299 552.342 41.1299C546.111 41.1299 541.846 44.9331 541.846 51.9175V57.936H534.799V66.097H541.846V87.0379H550.273Z" fill="white"/>
<path d="M60.0135 32.4243C48.4991 32.4243 45.1316 32.4362 44.477 32.4905C42.114 32.6869 40.6437 33.059 39.0418 33.8565C37.8073 34.4695 36.8336 35.1801 35.8728 36.1762C34.1228 37.9928 33.0622 40.2276 32.6783 42.8841C32.4917 44.1738 32.4374 44.4368 32.4263 51.0242C32.4221 53.2201 32.4263 56.1099 32.4263 59.9861C32.4263 71.4912 32.4391 74.8553 32.4942 75.5086C32.6851 77.808 33.0457 79.2546 33.8093 80.837C35.2687 83.866 38.0559 86.1398 41.3394 86.9883C42.4763 87.281 43.732 87.4422 45.3441 87.5186C46.0271 87.5483 52.9887 87.5695 59.9546 87.5695C66.9204 87.5695 73.8863 87.561 74.5523 87.5271C76.4189 87.4393 77.5028 87.2937 78.7013 86.9841C82.006 86.1314 84.7423 83.8914 86.2314 80.82C86.9801 79.2758 87.3598 77.774 87.5316 75.5948C87.569 75.1196 87.5847 67.5442 87.5847 59.9789C87.5847 52.4123 87.5677 44.8508 87.5304 44.3757C87.3564 42.1612 86.9767 40.6722 86.2038 39.0983C85.5696 37.8099 84.8653 36.8478 83.843 35.864C82.0183 34.1212 79.7869 33.0607 77.1278 32.6772C75.8394 32.4909 75.5828 32.4358 68.9903 32.4243H60.0135Z" fill="url(#paint0_radial)"/>
<path d="M60.0135 32.4243C48.4991 32.4243 45.1316 32.4362 44.477 32.4905C42.114 32.6869 40.6437 33.059 39.0418 33.8565C37.8073 34.4695 36.8336 35.1801 35.8728 36.1762C34.1228 37.9928 33.0622 40.2276 32.6783 42.8841C32.4917 44.1738 32.4374 44.4368 32.4263 51.0242C32.4221 53.2201 32.4263 56.1099 32.4263 59.9861C32.4263 71.4912 32.4391 74.8553 32.4942 75.5086C32.6851 77.808 33.0457 79.2546 33.8093 80.837C35.2687 83.866 38.0559 86.1398 41.3394 86.9883C42.4763 87.281 43.732 87.4422 45.3441 87.5186C46.0271 87.5483 52.9887 87.5695 59.9546 87.5695C66.9204 87.5695 73.8863 87.561 74.5523 87.5271C76.4189 87.4393 77.5028 87.2937 78.7013 86.9841C82.006 86.1314 84.7423 83.8914 86.2314 80.82C86.9801 79.2758 87.3598 77.774 87.5316 75.5948C87.569 75.1196 87.5847 67.5442 87.5847 59.9789C87.5847 52.4123 87.5677 44.8508 87.5304 44.3757C87.3564 42.1612 86.9767 40.6722 86.2038 39.0983C85.5696 37.8099 84.8653 36.8478 83.843 35.864C82.0183 34.1212 79.7869 33.0607 77.1278 32.6772C75.8394 32.4909 75.5828 32.4358 68.9903 32.4243H60.0135Z" fill="url(#paint1_radial)"/>
<path d="M60.0008 39.6362C54.4706 39.6362 53.7765 39.6604 51.6045 39.7593C49.4367 39.8585 47.9569 40.2017 46.6622 40.7053C45.3229 41.2254 44.1868 41.9211 43.055 43.0534C41.9223 44.1852 41.2265 45.3213 40.7047 46.6602C40.1999 47.9554 39.8563 49.4355 39.7587 51.6025C39.6616 53.7745 39.6361 54.469 39.6361 59.9992C39.6361 65.5295 39.6607 66.2214 39.7591 68.3935C39.8588 70.5613 40.202 72.041 40.7052 73.3358C41.2257 74.675 41.9214 75.8111 43.0537 76.943C44.1851 78.0757 45.3212 78.7731 46.6597 79.2932C47.9552 79.7968 49.4354 80.14 51.6028 80.2392C53.7748 80.3381 54.4684 80.3623 59.9983 80.3623C65.529 80.3623 66.2209 80.3381 68.3929 80.2392C70.5607 80.14 72.0422 79.7968 73.3378 79.2932C74.6766 78.7731 75.811 78.0757 76.9424 76.943C78.0751 75.8111 78.7709 74.675 79.2927 73.3362C79.7933 72.041 80.1369 70.5609 80.2387 68.3939C80.3363 66.2218 80.3617 65.5295 80.3617 59.9992C80.3617 54.469 80.3363 53.775 80.2387 51.6029C80.1369 49.4351 79.7933 47.9554 79.2927 46.6606C78.7709 45.3213 78.0751 44.1852 76.9424 43.0534C75.8097 41.9207 74.677 41.225 73.3365 40.7053C72.0383 40.2017 70.5578 39.8585 68.39 39.7593C66.2179 39.6604 65.5264 39.6362 59.9945 39.6362H60.0008ZM58.1741 43.3058C58.7163 43.305 59.3212 43.3058 60.0008 43.3058C65.4377 43.3058 66.0822 43.3253 68.2292 43.4229C70.2146 43.5137 71.2921 43.8454 72.0099 44.1242C72.9602 44.4932 73.6377 44.9344 74.35 45.6471C75.0627 46.3598 75.5039 47.0386 75.8738 47.9889C76.1525 48.7058 76.4847 49.7834 76.575 51.7688C76.6726 53.9154 76.6938 54.5602 76.6938 59.9946C76.6938 65.429 76.6726 66.0738 76.575 68.2204C76.4843 70.2058 76.1525 71.2833 75.8738 72.0003C75.5047 72.9506 75.0627 73.6272 74.35 74.3395C73.6373 75.0522 72.9606 75.4934 72.0099 75.8625C71.293 76.1425 70.2146 76.4734 68.2292 76.5641C66.0826 76.6617 65.4377 76.6829 60.0008 76.6829C54.5635 76.6829 53.9191 76.6617 51.7725 76.5641C49.7871 76.4725 48.7095 76.1408 47.9913 75.862C47.041 75.493 46.3623 75.0518 45.6496 74.3391C44.9369 73.6263 44.4957 72.9493 44.1257 71.9986C43.847 71.2816 43.5148 70.2041 43.4245 68.2187C43.3269 66.0721 43.3074 65.4273 43.3074 59.9895C43.3074 54.5517 43.3269 53.9103 43.4245 51.7637C43.5153 49.7783 43.847 48.7007 44.1257 47.9829C44.4948 47.0327 44.9369 46.3539 45.6496 45.6412C46.3623 44.9285 47.041 44.4873 47.9913 44.1174C48.7091 43.8374 49.7871 43.5065 51.7725 43.4153C53.651 43.3304 54.3789 43.305 58.1741 43.3007V43.3058ZM70.8704 46.6869C69.5214 46.6869 68.4269 47.7802 68.4269 49.1296C68.4269 50.4787 69.5214 51.5732 70.8704 51.5732C72.2195 51.5732 73.314 50.4787 73.314 49.1296C73.314 47.7806 72.2195 46.6861 70.8704 46.6861V46.6869ZM60.0008 49.542C54.2258 49.542 49.5436 54.2242 49.5436 59.9992C49.5436 65.7743 54.2258 70.4544 60.0008 70.4544C65.7759 70.4544 70.4564 65.7743 70.4564 59.9992C70.4564 54.2242 65.7754 49.542 60.0004 49.542H60.0008ZM60.0008 53.2116C63.7493 53.2116 66.7885 56.2503 66.7885 59.9992C66.7885 63.7477 63.7493 66.7869 60.0008 66.7869C56.2519 66.7869 53.2132 63.7477 53.2132 59.9992C53.2132 56.2503 56.2519 53.2116 60.0008 53.2116V53.2116Z" fill="white"/>
<g clip-path="url(#clip0)">
<path d="M168.944 84.6376C191.436 84.6376 203.735 66.0041 203.735 49.8463C203.735 49.3171 203.724 48.7902 203.7 48.2657C206.088 46.5397 208.163 44.3857 209.8 41.9338C207.609 42.9076 205.251 43.5633 202.778 43.8589C205.302 42.345 207.241 39.9503 208.155 37.0954C205.792 38.496 203.176 39.514 200.39 40.0635C198.159 37.6866 194.982 36.2002 191.464 36.2002C184.712 36.2002 179.236 41.6763 179.236 48.4267C179.236 49.3862 179.343 50.3196 179.553 51.2148C169.39 50.7034 160.378 45.8376 154.348 38.4388C153.297 40.2459 152.692 42.345 152.692 44.5848C152.692 48.8272 154.851 52.5725 158.133 54.7634C156.127 54.7014 154.243 54.1507 152.595 53.234C152.594 53.2853 152.594 53.3354 152.594 53.3902C152.594 59.3121 156.808 64.2566 162.404 65.3771C161.376 65.6572 160.295 65.8074 159.179 65.8074C158.393 65.8074 157.626 65.7299 156.881 65.5869C158.438 70.4455 162.952 73.981 168.304 74.0799C164.119 77.3603 158.847 79.3141 153.117 79.3141C152.131 79.3141 151.157 79.258 150.2 79.1448C155.612 82.6135 162.038 84.6376 168.944 84.6376" fill="#1DA1F2"/>
</g>
<g clip-path="url(#clip1)">
<path d="M326.775 65.9694C325.953 70.2019 319.407 74.8339 311.889 75.7316C307.969 76.1993 304.109 76.6293 299.994 76.4405C293.263 76.1321 287.951 74.8339 287.951 74.8339C287.951 75.4891 287.992 76.113 288.073 76.6965C288.948 83.3392 294.659 83.7372 300.07 83.9227C305.531 84.1096 310.393 82.5763 310.393 82.5763L310.618 87.5132C310.618 87.5132 306.798 89.5643 299.994 89.9416C296.241 90.1478 291.583 89.8472 286.156 88.4109C274.388 85.2959 272.364 72.7511 272.054 60.0223C271.96 56.2431 272.018 52.6794 272.018 49.699C272.018 36.6831 280.546 32.868 280.546 32.868C284.846 30.8932 292.224 30.0627 299.895 30H300.083C307.754 30.0627 315.137 30.8932 319.437 32.868C319.437 32.868 327.965 36.6831 327.965 49.699C327.965 49.699 328.072 59.3021 326.775 65.9694Z" fill="#2B90D9"/>
<path d="M317.906 50.7086V66.4686H311.662V51.1718C311.662 47.9473 310.305 46.3106 307.591 46.3106C304.591 46.3106 303.087 48.2521 303.087 52.0912V60.464H296.88V52.0912C296.88 48.2521 295.376 46.3106 292.375 46.3106C289.662 46.3106 288.305 47.9473 288.305 51.1718V66.4686H282.061V50.7086C282.061 47.4876 282.881 44.928 284.529 43.0343C286.227 41.1407 288.452 40.1699 291.214 40.1699C294.409 40.1699 296.828 41.398 298.428 43.8545L299.983 46.4616L301.539 43.8545C303.139 41.398 305.558 40.1699 308.754 40.1699C311.515 40.1699 313.74 41.1407 315.439 43.0343C317.086 44.928 317.906 47.4876 317.906 50.7086Z" fill="white"/>
</g>
<path d="M448.676 165.58C448.332 164.308 447.66 163.149 446.729 162.217C445.797 161.285 444.637 160.614 443.366 160.27C438.71 159 419.97 159 419.97 159C419.97 159 401.23 159.038 396.574 160.308C395.302 160.652 394.142 161.324 393.211 162.256C392.279 163.187 391.608 164.347 391.263 165.619C389.855 173.892 389.309 186.498 391.302 194.44C391.646 195.712 392.317 196.872 393.249 197.803C394.181 198.735 395.34 199.406 396.612 199.751C401.268 201.02 420.008 201.02 420.008 201.02C420.008 201.02 438.748 201.02 443.404 199.751C444.676 199.406 445.835 198.735 446.767 197.803C447.699 196.872 448.37 195.712 448.714 194.44C450.2 186.155 450.658 173.557 448.676 165.58Z" fill="#DD1166"/>
<path d="M414.005 189.015L429.551 180.01L414.005 171.006V189.015Z" fill="white"/>
<path d="M564.053 207.037C565.701 207.037 567.037 205.701 567.037 204.053V155.947C567.037 154.298 565.701 152.962 564.053 152.962H515.947C514.299 152.962 512.963 154.298 512.963 155.947V204.053C512.963 205.701 514.298 207.037 515.947 207.037H564.053Z" fill="#DD1166"/>
<path d="M550.273 207.038V186.097H557.302L558.355 177.936H550.273V172.726C550.273 170.363 550.93 168.753 554.318 168.753L558.639 168.751V161.452C557.892 161.352 555.327 161.13 552.342 161.13C546.111 161.13 541.846 164.933 541.846 171.917V177.936H534.799V186.097H541.846V207.038H550.273Z" fill="white"/>
<path d="M60.0135 152.424C48.4991 152.424 45.1316 152.436 44.477 152.49C42.114 152.687 40.6437 153.059 39.0418 153.857C37.8073 154.47 36.8336 155.18 35.8728 156.176C34.1228 157.993 33.0622 160.228 32.6783 162.884C32.4917 164.174 32.4374 164.437 32.4263 171.024C32.4221 173.22 32.4263 176.11 32.4263 179.986C32.4263 191.491 32.4391 194.855 32.4942 195.509C32.6851 197.808 33.0457 199.255 33.8093 200.837C35.2687 203.866 38.0559 206.14 41.3394 206.988C42.4763 207.281 43.732 207.442 45.3441 207.519C46.0271 207.548 52.9887 207.569 59.9546 207.569C66.9204 207.569 73.8863 207.561 74.5523 207.527C76.4189 207.439 77.5028 207.294 78.7013 206.984C82.006 206.131 84.7423 203.891 86.2314 200.82C86.9801 199.276 87.3598 197.774 87.5316 195.595C87.569 195.12 87.5847 187.544 87.5847 179.979C87.5847 172.412 87.5677 164.851 87.5304 164.376C87.3564 162.161 86.9767 160.672 86.2038 159.098C85.5696 157.81 84.8653 156.848 83.843 155.864C82.0183 154.121 79.7869 153.061 77.1278 152.677C75.8394 152.491 75.5828 152.436 68.9903 152.424H60.0135Z" fill="url(#paint2_radial)"/>
<path d="M60.0135 152.424C48.4991 152.424 45.1316 152.436 44.477 152.49C42.114 152.687 40.6437 153.059 39.0418 153.857C37.8073 154.47 36.8336 155.18 35.8728 156.176C34.1228 157.993 33.0622 160.228 32.6783 162.884C32.4917 164.174 32.4374 164.437 32.4263 171.024C32.4221 173.22 32.4263 176.11 32.4263 179.986C32.4263 191.491 32.4391 194.855 32.4942 195.509C32.6851 197.808 33.0457 199.255 33.8093 200.837C35.2687 203.866 38.0559 206.14 41.3394 206.988C42.4763 207.281 43.732 207.442 45.3441 207.519C46.0271 207.548 52.9887 207.569 59.9546 207.569C66.9204 207.569 73.8863 207.561 74.5523 207.527C76.4189 207.439 77.5028 207.294 78.7013 206.984C82.006 206.131 84.7423 203.891 86.2314 200.82C86.9801 199.276 87.3598 197.774 87.5316 195.595C87.569 195.12 87.5847 187.544 87.5847 179.979C87.5847 172.412 87.5677 164.851 87.5304 164.376C87.3564 162.161 86.9767 160.672 86.2038 159.098C85.5696 157.81 84.8653 156.848 83.843 155.864C82.0183 154.121 79.7869 153.061 77.1278 152.677C75.8394 152.491 75.5828 152.436 68.9903 152.424H60.0135Z" fill="#DD1166"/>
<path d="M60.0008 159.636C54.4706 159.636 53.7765 159.66 51.6045 159.759C49.4367 159.859 47.9569 160.202 46.6622 160.705C45.3229 161.225 44.1868 161.921 43.055 163.053C41.9223 164.185 41.2265 165.321 40.7047 166.66C40.1999 167.955 39.8563 169.436 39.7587 171.602C39.6616 173.775 39.6361 174.469 39.6361 179.999C39.6361 185.53 39.6607 186.221 39.7591 188.393C39.8588 190.561 40.202 192.041 40.7052 193.336C41.2257 194.675 41.9214 195.811 43.0537 196.943C44.1851 198.076 45.3212 198.773 46.6597 199.293C47.9552 199.797 49.4354 200.14 51.6028 200.239C53.7748 200.338 54.4684 200.362 59.9983 200.362C65.529 200.362 66.2209 200.338 68.3929 200.239C70.5607 200.14 72.0422 199.797 73.3378 199.293C74.6766 198.773 75.811 198.076 76.9424 196.943C78.0751 195.811 78.7709 194.675 79.2927 193.336C79.7933 192.041 80.1369 190.561 80.2387 188.394C80.3363 186.222 80.3617 185.53 80.3617 179.999C80.3617 174.469 80.3363 173.775 80.2387 171.603C80.1369 169.435 79.7933 167.955 79.2927 166.661C78.7709 165.321 78.0751 164.185 76.9424 163.053C75.8097 161.921 74.677 161.225 73.3365 160.705C72.0383 160.202 70.5578 159.859 68.39 159.759C66.2179 159.66 65.5264 159.636 59.9945 159.636H60.0008ZM58.1741 163.306C58.7163 163.305 59.3212 163.306 60.0008 163.306C65.4377 163.306 66.0822 163.325 68.2292 163.423C70.2146 163.514 71.2921 163.845 72.0099 164.124C72.9602 164.493 73.6377 164.934 74.35 165.647C75.0627 166.36 75.5039 167.039 75.8738 167.989C76.1525 168.706 76.4847 169.783 76.575 171.769C76.6726 173.915 76.6938 174.56 76.6938 179.995C76.6938 185.429 76.6726 186.074 76.575 188.22C76.4843 190.206 76.1525 191.283 75.8738 192C75.5047 192.951 75.0627 193.627 74.35 194.339C73.6373 195.052 72.9606 195.493 72.0099 195.862C71.293 196.142 70.2146 196.473 68.2292 196.564C66.0826 196.662 65.4377 196.683 60.0008 196.683C54.5635 196.683 53.9191 196.662 51.7725 196.564C49.7871 196.473 48.7095 196.141 47.9913 195.862C47.041 195.493 46.3623 195.052 45.6496 194.339C44.9369 193.626 44.4957 192.949 44.1257 191.999C43.847 191.282 43.5148 190.204 43.4245 188.219C43.3269 186.072 43.3074 185.427 43.3074 179.989C43.3074 174.552 43.3269 173.91 43.4245 171.764C43.5153 169.778 43.847 168.701 44.1257 167.983C44.4948 167.033 44.9369 166.354 45.6496 165.641C46.3623 164.928 47.041 164.487 47.9913 164.117C48.7091 163.837 49.7871 163.506 51.7725 163.415C53.651 163.33 54.3789 163.305 58.1741 163.301V163.306ZM70.8704 166.687C69.5214 166.687 68.4269 167.78 68.4269 169.13C68.4269 170.479 69.5214 171.573 70.8704 171.573C72.2195 171.573 73.314 170.479 73.314 169.13C73.314 167.781 72.2195 166.686 70.8704 166.686V166.687ZM60.0008 169.542C54.2258 169.542 49.5436 174.224 49.5436 179.999C49.5436 185.774 54.2258 190.454 60.0008 190.454C65.7759 190.454 70.4564 185.774 70.4564 179.999C70.4564 174.224 65.7754 169.542 60.0004 169.542H60.0008ZM60.0008 173.212C63.7493 173.212 66.7885 176.25 66.7885 179.999C66.7885 183.748 63.7493 186.787 60.0008 186.787C56.2519 186.787 53.2132 183.748 53.2132 179.999C53.2132 176.25 56.2519 173.212 60.0008 173.212V173.212Z" fill="white"/>
<g clip-path="url(#clip2)">
<path d="M168.944 204.638C191.436 204.638 203.735 186.004 203.735 169.846C203.735 169.317 203.724 168.79 203.7 168.266C206.088 166.54 208.163 164.386 209.8 161.934C207.609 162.908 205.251 163.563 202.778 163.859C205.302 162.345 207.241 159.95 208.155 157.095C205.792 158.496 203.176 159.514 200.39 160.064C198.159 157.687 194.982 156.2 191.464 156.2C184.712 156.2 179.236 161.676 179.236 168.427C179.236 169.386 179.343 170.32 179.553 171.215C169.39 170.703 160.378 165.838 154.348 158.439C153.297 160.246 152.692 162.345 152.692 164.585C152.692 168.827 154.851 172.572 158.133 174.763C156.127 174.701 154.243 174.151 152.595 173.234C152.594 173.285 152.594 173.335 152.594 173.39C152.594 179.312 156.808 184.257 162.404 185.377C161.376 185.657 160.295 185.807 159.179 185.807C158.393 185.807 157.626 185.73 156.881 185.587C158.438 190.445 162.952 193.981 168.304 194.08C164.119 197.36 158.847 199.314 153.117 199.314C152.131 199.314 151.157 199.258 150.2 199.145C155.612 202.614 162.038 204.638 168.944 204.638" fill="#DD1166"/>
</g>
<g clip-path="url(#clip3)">
<path d="M326.775 185.969C325.953 190.202 319.407 194.834 311.889 195.732C307.969 196.199 304.109 196.629 299.994 196.441C293.263 196.132 287.951 194.834 287.951 194.834C287.951 195.489 287.992 196.113 288.073 196.697C288.948 203.339 294.659 203.737 300.07 203.923C305.531 204.11 310.393 202.576 310.393 202.576L310.618 207.513C310.618 207.513 306.798 209.564 299.994 209.942C296.241 210.148 291.583 209.847 286.156 208.411C274.388 205.296 272.364 192.751 272.054 180.022C271.96 176.243 272.018 172.679 272.018 169.699C272.018 156.683 280.546 152.868 280.546 152.868C284.846 150.893 292.224 150.063 299.895 150H300.083C307.754 150.063 315.137 150.893 319.437 152.868C319.437 152.868 327.965 156.683 327.965 169.699C327.965 169.699 328.072 179.302 326.775 185.969Z" fill="#DD1166"/>
<path d="M317.906 170.709V186.469H311.662V171.172C311.662 167.947 310.305 166.311 307.591 166.311C304.591 166.311 303.087 168.252 303.087 172.091V180.464H296.88V172.091C296.88 168.252 295.376 166.311 292.375 166.311C289.662 166.311 288.305 167.947 288.305 171.172V186.469H282.061V170.709C282.061 167.488 282.881 164.928 284.529 163.034C286.227 161.141 288.452 160.17 291.214 160.17C294.409 160.17 296.828 161.398 298.428 163.854L299.983 166.462L301.539 163.854C303.139 161.398 305.558 160.17 308.754 160.17C311.515 160.17 313.74 161.141 315.439 163.034C317.086 164.928 317.906 167.488 317.906 170.709Z" fill="white"/>
</g>
<path d="M448.676 285.58C448.332 284.308 447.66 283.149 446.729 282.217C445.797 281.285 444.637 280.614 443.366 280.27C438.71 279 419.97 279 419.97 279C419.97 279 401.23 279.038 396.574 280.308C395.302 280.652 394.142 281.324 393.211 282.256C392.279 283.187 391.608 284.347 391.263 285.619C389.855 293.892 389.309 306.498 391.302 314.44C391.646 315.712 392.317 316.872 393.249 317.803C394.181 318.735 395.34 319.406 396.612 319.751C401.268 321.02 420.008 321.02 420.008 321.02C420.008 321.02 438.748 321.02 443.404 319.751C444.676 319.406 445.835 318.735 446.767 317.803C447.699 316.872 448.37 315.712 448.714 314.44C450.2 306.155 450.658 293.557 448.676 285.58Z" fill="#241F20"/>
<path d="M414.005 309.015L429.551 300.01L414.005 291.006V309.015Z" fill="white"/>
<path d="M564.053 327.037C565.701 327.037 567.037 325.701 567.037 324.053V275.947C567.037 274.298 565.701 272.962 564.053 272.962H515.947C514.299 272.962 512.963 274.298 512.963 275.947V324.053C512.963 325.701 514.298 327.037 515.947 327.037H564.053Z" fill="#241F20"/>
<path d="M550.273 327.038V306.097H557.302L558.355 297.936H550.273V292.726C550.273 290.363 550.93 288.753 554.318 288.753L558.639 288.751V281.452C557.892 281.352 555.327 281.13 552.342 281.13C546.111 281.13 541.846 284.933 541.846 291.917V297.936H534.799V306.097H541.846V327.038H550.273Z" fill="white"/>
<path d="M60.0135 272.424C48.4991 272.424 45.1316 272.436 44.477 272.49C42.114 272.687 40.6437 273.059 39.0418 273.857C37.8073 274.47 36.8336 275.18 35.8728 276.176C34.1228 277.993 33.0622 280.228 32.6783 282.884C32.4917 284.174 32.4374 284.437 32.4263 291.024C32.4221 293.22 32.4263 296.11 32.4263 299.986C32.4263 311.491 32.4391 314.855 32.4942 315.509C32.6851 317.808 33.0457 319.255 33.8093 320.837C35.2687 323.866 38.0559 326.14 41.3394 326.988C42.4763 327.281 43.732 327.442 45.3441 327.519C46.0271 327.548 52.9887 327.569 59.9546 327.569C66.9204 327.569 73.8863 327.561 74.5523 327.527C76.4189 327.439 77.5028 327.294 78.7013 326.984C82.006 326.131 84.7423 323.891 86.2314 320.82C86.9801 319.276 87.3598 317.774 87.5316 315.595C87.569 315.12 87.5847 307.544 87.5847 299.979C87.5847 292.412 87.5677 284.851 87.5304 284.376C87.3564 282.161 86.9767 280.672 86.2038 279.098C85.5696 277.81 84.8653 276.848 83.843 275.864C82.0183 274.121 79.7869 273.061 77.1278 272.677C75.8394 272.491 75.5828 272.436 68.9903 272.424H60.0135Z" fill="url(#paint3_radial)"/>
<path d="M60.0135 272.424C48.4991 272.424 45.1316 272.436 44.477 272.49C42.114 272.687 40.6437 273.059 39.0418 273.857C37.8073 274.47 36.8336 275.18 35.8728 276.176C34.1228 277.993 33.0622 280.228 32.6783 282.884C32.4917 284.174 32.4374 284.437 32.4263 291.024C32.4221 293.22 32.4263 296.11 32.4263 299.986C32.4263 311.491 32.4391 314.855 32.4942 315.509C32.6851 317.808 33.0457 319.255 33.8093 320.837C35.2687 323.866 38.0559 326.14 41.3394 326.988C42.4763 327.281 43.732 327.442 45.3441 327.519C46.0271 327.548 52.9887 327.569 59.9546 327.569C66.9204 327.569 73.8863 327.561 74.5523 327.527C76.4189 327.439 77.5028 327.294 78.7013 326.984C82.006 326.131 84.7423 323.891 86.2314 320.82C86.9801 319.276 87.3598 317.774 87.5316 315.595C87.569 315.12 87.5847 307.544 87.5847 299.979C87.5847 292.412 87.5677 284.851 87.5304 284.376C87.3564 282.161 86.9767 280.672 86.2038 279.098C85.5696 277.81 84.8653 276.848 83.843 275.864C82.0183 274.121 79.7869 273.061 77.1278 272.677C75.8394 272.491 75.5828 272.436 68.9903 272.424H60.0135Z" fill="#241F20"/>
<path d="M60.0008 279.636C54.4706 279.636 53.7765 279.66 51.6045 279.759C49.4367 279.859 47.9569 280.202 46.6622 280.705C45.3229 281.225 44.1868 281.921 43.055 283.053C41.9223 284.185 41.2265 285.321 40.7047 286.66C40.1999 287.955 39.8563 289.436 39.7587 291.602C39.6616 293.775 39.6361 294.469 39.6361 299.999C39.6361 305.53 39.6607 306.221 39.7591 308.393C39.8588 310.561 40.202 312.041 40.7052 313.336C41.2257 314.675 41.9214 315.811 43.0537 316.943C44.1851 318.076 45.3212 318.773 46.6597 319.293C47.9552 319.797 49.4354 320.14 51.6028 320.239C53.7748 320.338 54.4684 320.362 59.9983 320.362C65.529 320.362 66.2209 320.338 68.3929 320.239C70.5607 320.14 72.0422 319.797 73.3378 319.293C74.6766 318.773 75.811 318.076 76.9424 316.943C78.0751 315.811 78.7709 314.675 79.2927 313.336C79.7933 312.041 80.1369 310.561 80.2387 308.394C80.3363 306.222 80.3617 305.53 80.3617 299.999C80.3617 294.469 80.3363 293.775 80.2387 291.603C80.1369 289.435 79.7933 287.955 79.2927 286.661C78.7709 285.321 78.0751 284.185 76.9424 283.053C75.8097 281.921 74.677 281.225 73.3365 280.705C72.0383 280.202 70.5578 279.859 68.39 279.759C66.2179 279.66 65.5264 279.636 59.9945 279.636H60.0008ZM58.1741 283.306C58.7163 283.305 59.3212 283.306 60.0008 283.306C65.4377 283.306 66.0822 283.325 68.2292 283.423C70.2146 283.514 71.2921 283.845 72.0099 284.124C72.9602 284.493 73.6377 284.934 74.35 285.647C75.0627 286.36 75.5039 287.039 75.8738 287.989C76.1525 288.706 76.4847 289.783 76.575 291.769C76.6726 293.915 76.6938 294.56 76.6938 299.995C76.6938 305.429 76.6726 306.074 76.575 308.22C76.4843 310.206 76.1525 311.283 75.8738 312C75.5047 312.951 75.0627 313.627 74.35 314.339C73.6373 315.052 72.9606 315.493 72.0099 315.862C71.293 316.142 70.2146 316.473 68.2292 316.564C66.0826 316.662 65.4377 316.683 60.0008 316.683C54.5635 316.683 53.9191 316.662 51.7725 316.564C49.7871 316.473 48.7095 316.141 47.9913 315.862C47.041 315.493 46.3623 315.052 45.6496 314.339C44.9369 313.626 44.4957 312.949 44.1257 311.999C43.847 311.282 43.5148 310.204 43.4245 308.219C43.3269 306.072 43.3074 305.427 43.3074 299.989C43.3074 294.552 43.3269 293.91 43.4245 291.764C43.5153 289.778 43.847 288.701 44.1257 287.983C44.4948 287.033 44.9369 286.354 45.6496 285.641C46.3623 284.928 47.041 284.487 47.9913 284.117C48.7091 283.837 49.7871 283.506 51.7725 283.415C53.651 283.33 54.3789 283.305 58.1741 283.301V283.306ZM70.8704 286.687C69.5214 286.687 68.4269 287.78 68.4269 289.13C68.4269 290.479 69.5214 291.573 70.8704 291.573C72.2195 291.573 73.314 290.479 73.314 289.13C73.314 287.781 72.2195 286.686 70.8704 286.686V286.687ZM60.0008 289.542C54.2258 289.542 49.5436 294.224 49.5436 299.999C49.5436 305.774 54.2258 310.454 60.0008 310.454C65.7759 310.454 70.4564 305.774 70.4564 299.999C70.4564 294.224 65.7754 289.542 60.0004 289.542H60.0008ZM60.0008 293.212C63.7493 293.212 66.7885 296.25 66.7885 299.999C66.7885 303.748 63.7493 306.787 60.0008 306.787C56.2519 306.787 53.2132 303.748 53.2132 299.999C53.2132 296.25 56.2519 293.212 60.0008 293.212V293.212Z" fill="white"/>
<g clip-path="url(#clip4)">
<path d="M168.944 324.638C191.436 324.638 203.735 306.004 203.735 289.846C203.735 289.317 203.724 288.79 203.7 288.266C206.088 286.54 208.163 284.386 209.8 281.934C207.609 282.908 205.251 283.563 202.778 283.859C205.302 282.345 207.241 279.95 208.155 277.095C205.792 278.496 203.176 279.514 200.39 280.064C198.159 277.687 194.982 276.2 191.464 276.2C184.712 276.2 179.236 281.676 179.236 288.427C179.236 289.386 179.343 290.32 179.553 291.215C169.39 290.703 160.378 285.838 154.348 278.439C153.297 280.246 152.692 282.345 152.692 284.585C152.692 288.827 154.851 292.572 158.133 294.763C156.127 294.701 154.243 294.151 152.595 293.234C152.594 293.285 152.594 293.335 152.594 293.39C152.594 299.312 156.808 304.257 162.404 305.377C161.376 305.657 160.295 305.807 159.179 305.807C158.393 305.807 157.626 305.73 156.881 305.587C158.438 310.445 162.952 313.981 168.304 314.08C164.119 317.36 158.847 319.314 153.117 319.314C152.131 319.314 151.157 319.258 150.2 319.145C155.612 322.614 162.038 324.638 168.944 324.638" fill="#241F20"/>
</g>
<g clip-path="url(#clip5)">
<path d="M326.775 305.969C325.953 310.202 319.407 314.834 311.889 315.732C307.969 316.199 304.109 316.629 299.994 316.441C293.263 316.132 287.951 314.834 287.951 314.834C287.951 315.489 287.992 316.113 288.073 316.697C288.948 323.339 294.659 323.737 300.07 323.923C305.531 324.11 310.393 322.576 310.393 322.576L310.618 327.513C310.618 327.513 306.798 329.564 299.994 329.942C296.241 330.148 291.583 329.847 286.156 328.411C274.388 325.296 272.364 312.751 272.054 300.022C271.96 296.243 272.018 292.679 272.018 289.699C272.018 276.683 280.546 272.868 280.546 272.868C284.846 270.893 292.224 270.063 299.895 270H300.083C307.754 270.063 315.137 270.893 319.437 272.868C319.437 272.868 327.965 276.683 327.965 289.699C327.965 289.699 328.072 299.302 326.775 305.969Z" fill="#241F20"/>
<path d="M317.906 290.709V306.469H311.662V291.172C311.662 287.947 310.305 286.311 307.591 286.311C304.591 286.311 303.087 288.252 303.087 292.091V300.464H296.88V292.091C296.88 288.252 295.376 286.311 292.375 286.311C289.662 286.311 288.305 287.947 288.305 291.172V306.469H282.061V290.709C282.061 287.488 282.881 284.928 284.529 283.034C286.227 281.141 288.452 280.17 291.214 280.17C294.409 280.17 296.828 281.398 298.428 283.854L299.983 286.462L301.539 283.854C303.139 281.398 305.558 280.17 308.754 280.17C311.515 280.17 313.74 281.141 315.439 283.034C317.086 284.928 317.906 287.488 317.906 290.709Z" fill="white"/>
</g>
<path d="M448.676 405.58C448.332 404.308 447.66 403.149 446.729 402.217C445.797 401.285 444.637 400.614 443.366 400.27C438.71 399 419.97 399 419.97 399C419.97 399 401.23 399.038 396.574 400.308C395.302 400.652 394.142 401.324 393.211 402.256C392.279 403.187 391.608 404.347 391.263 405.619C389.855 413.892 389.309 426.498 391.302 434.44C391.646 435.712 392.317 436.872 393.249 437.803C394.181 438.735 395.34 439.406 396.612 439.751C401.268 441.02 420.008 441.02 420.008 441.02C420.008 441.02 438.748 441.02 443.404 439.751C444.676 439.406 445.835 438.735 446.767 437.803C447.699 436.872 448.37 435.712 448.714 434.44C450.2 426.155 450.658 413.557 448.676 405.58Z" fill="#AAAAAA"/>
<path d="M414.005 429.015L429.551 420.01L414.005 411.006V429.015Z" fill="white"/>
<path d="M564.053 447.037C565.701 447.037 567.037 445.701 567.037 444.053V395.947C567.037 394.298 565.701 392.962 564.053 392.962H515.947C514.299 392.962 512.963 394.298 512.963 395.947V444.053C512.963 445.701 514.298 447.037 515.947 447.037H564.053Z" fill="#AAAAAA"/>
<path d="M550.273 447.038V426.097H557.302L558.355 417.936H550.273V412.726C550.273 410.363 550.93 408.753 554.318 408.753L558.639 408.751V401.452C557.892 401.352 555.327 401.13 552.342 401.13C546.111 401.13 541.846 404.933 541.846 411.917V417.936H534.799V426.097H541.846V447.038H550.273Z" fill="white"/>
<path d="M60.0135 392.424C48.4991 392.424 45.1316 392.436 44.477 392.49C42.114 392.687 40.6437 393.059 39.0418 393.857C37.8073 394.47 36.8336 395.18 35.8728 396.176C34.1228 397.993 33.0622 400.228 32.6783 402.884C32.4917 404.174 32.4374 404.437 32.4263 411.024C32.4221 413.22 32.4263 416.11 32.4263 419.986C32.4263 431.491 32.4391 434.855 32.4942 435.509C32.6851 437.808 33.0457 439.255 33.8093 440.837C35.2687 443.866 38.0559 446.14 41.3394 446.988C42.4763 447.281 43.732 447.442 45.3441 447.519C46.0271 447.548 52.9887 447.569 59.9546 447.569C66.9204 447.569 73.8863 447.561 74.5523 447.527C76.4189 447.439 77.5028 447.294 78.7013 446.984C82.006 446.131 84.7423 443.891 86.2314 440.82C86.9801 439.276 87.3598 437.774 87.5316 435.595C87.569 435.12 87.5847 427.544 87.5847 419.979C87.5847 412.412 87.5677 404.851 87.5304 404.376C87.3564 402.161 86.9767 400.672 86.2038 399.098C85.5696 397.81 84.8653 396.848 83.843 395.864C82.0183 394.121 79.7869 393.061 77.1278 392.677C75.8394 392.491 75.5828 392.436 68.9903 392.424H60.0135Z" fill="url(#paint4_radial)"/>
<path d="M60.0135 392.424C48.4991 392.424 45.1316 392.436 44.477 392.49C42.114 392.687 40.6437 393.059 39.0418 393.857C37.8073 394.47 36.8336 395.18 35.8728 396.176C34.1228 397.993 33.0622 400.228 32.6783 402.884C32.4917 404.174 32.4374 404.437 32.4263 411.024C32.4221 413.22 32.4263 416.11 32.4263 419.986C32.4263 431.491 32.4391 434.855 32.4942 435.509C32.6851 437.808 33.0457 439.255 33.8093 440.837C35.2687 443.866 38.0559 446.14 41.3394 446.988C42.4763 447.281 43.732 447.442 45.3441 447.519C46.0271 447.548 52.9887 447.569 59.9546 447.569C66.9204 447.569 73.8863 447.561 74.5523 447.527C76.4189 447.439 77.5028 447.294 78.7013 446.984C82.006 446.131 84.7423 443.891 86.2314 440.82C86.9801 439.276 87.3598 437.774 87.5316 435.595C87.569 435.12 87.5847 427.544 87.5847 419.979C87.5847 412.412 87.5677 404.851 87.5304 404.376C87.3564 402.161 86.9767 400.672 86.2038 399.098C85.5696 397.81 84.8653 396.848 83.843 395.864C82.0183 394.121 79.7869 393.061 77.1278 392.677C75.8394 392.491 75.5828 392.436 68.9903 392.424H60.0135Z" fill="#AAAAAA"/>
<path d="M60.0008 399.636C54.4706 399.636 53.7765 399.66 51.6045 399.759C49.4367 399.859 47.9569 400.202 46.6622 400.705C45.3229 401.225 44.1868 401.921 43.055 403.053C41.9223 404.185 41.2265 405.321 40.7047 406.66C40.1999 407.955 39.8563 409.436 39.7587 411.602C39.6616 413.775 39.6361 414.469 39.6361 419.999C39.6361 425.53 39.6607 426.221 39.7591 428.393C39.8588 430.561 40.202 432.041 40.7052 433.336C41.2257 434.675 41.9214 435.811 43.0537 436.943C44.1851 438.076 45.3212 438.773 46.6597 439.293C47.9552 439.797 49.4354 440.14 51.6028 440.239C53.7748 440.338 54.4684 440.362 59.9983 440.362C65.529 440.362 66.2209 440.338 68.3929 440.239C70.5607 440.14 72.0422 439.797 73.3378 439.293C74.6766 438.773 75.811 438.076 76.9424 436.943C78.0751 435.811 78.7709 434.675 79.2927 433.336C79.7933 432.041 80.1369 430.561 80.2387 428.394C80.3363 426.222 80.3617 425.53 80.3617 419.999C80.3617 414.469 80.3363 413.775 80.2387 411.603C80.1369 409.435 79.7933 407.955 79.2927 406.661C78.7709 405.321 78.0751 404.185 76.9424 403.053C75.8097 401.921 74.677 401.225 73.3365 400.705C72.0383 400.202 70.5578 399.859 68.39 399.759C66.2179 399.66 65.5264 399.636 59.9945 399.636H60.0008ZM58.1741 403.306C58.7163 403.305 59.3212 403.306 60.0008 403.306C65.4377 403.306 66.0822 403.325 68.2292 403.423C70.2146 403.514 71.2921 403.845 72.0099 404.124C72.9602 404.493 73.6377 404.934 74.35 405.647C75.0627 406.36 75.5039 407.039 75.8738 407.989C76.1525 408.706 76.4847 409.783 76.575 411.769C76.6726 413.915 76.6938 414.56 76.6938 419.995C76.6938 425.429 76.6726 426.074 76.575 428.22C76.4843 430.206 76.1525 431.283 75.8738 432C75.5047 432.951 75.0627 433.627 74.35 434.339C73.6373 435.052 72.9606 435.493 72.0099 435.862C71.293 436.142 70.2146 436.473 68.2292 436.564C66.0826 436.662 65.4377 436.683 60.0008 436.683C54.5635 436.683 53.9191 436.662 51.7725 436.564C49.7871 436.473 48.7095 436.141 47.9913 435.862C47.041 435.493 46.3623 435.052 45.6496 434.339C44.9369 433.626 44.4957 432.949 44.1257 431.999C43.847 431.282 43.5148 430.204 43.4245 428.219C43.3269 426.072 43.3074 425.427 43.3074 419.989C43.3074 414.552 43.3269 413.91 43.4245 411.764C43.5153 409.778 43.847 408.701 44.1257 407.983C44.4948 407.033 44.9369 406.354 45.6496 405.641C46.3623 404.928 47.041 404.487 47.9913 404.117C48.7091 403.837 49.7871 403.506 51.7725 403.415C53.651 403.33 54.3789 403.305 58.1741 403.301V403.306ZM70.8704 406.687C69.5214 406.687 68.4269 407.78 68.4269 409.13C68.4269 410.479 69.5214 411.573 70.8704 411.573C72.2195 411.573 73.314 410.479 73.314 409.13C73.314 407.781 72.2195 406.686 70.8704 406.686V406.687ZM60.0008 409.542C54.2258 409.542 49.5436 414.224 49.5436 419.999C49.5436 425.774 54.2258 430.454 60.0008 430.454C65.7759 430.454 70.4564 425.774 70.4564 419.999C70.4564 414.224 65.7754 409.542 60.0004 409.542H60.0008ZM60.0008 413.212C63.7493 413.212 66.7885 416.25 66.7885 419.999C66.7885 423.748 63.7493 426.787 60.0008 426.787C56.2519 426.787 53.2132 423.748 53.2132 419.999C53.2132 416.25 56.2519 413.212 60.0008 413.212V413.212Z" fill="white"/>
<g clip-path="url(#clip6)">
<path d="M168.944 444.638C191.436 444.638 203.735 426.004 203.735 409.846C203.735 409.317 203.724 408.79 203.7 408.266C206.088 406.54 208.163 404.386 209.8 401.934C207.609 402.908 205.251 403.563 202.778 403.859C205.302 402.345 207.241 399.95 208.155 397.095C205.792 398.496 203.176 399.514 200.39 400.064C198.159 397.687 194.982 396.2 191.464 396.2C184.712 396.2 179.236 401.676 179.236 408.427C179.236 409.386 179.343 410.32 179.553 411.215C169.39 410.703 160.378 405.838 154.348 398.439C153.297 400.246 152.692 402.345 152.692 404.585C152.692 408.827 154.851 412.572 158.133 414.763C156.127 414.701 154.243 414.151 152.595 413.234C152.594 413.285 152.594 413.335 152.594 413.39C152.594 419.312 156.808 424.257 162.404 425.377C161.376 425.657 160.295 425.807 159.179 425.807C158.393 425.807 157.626 425.73 156.881 425.587C158.438 430.445 162.952 433.981 168.304 434.08C164.119 437.36 158.847 439.314 153.117 439.314C152.131 439.314 151.157 439.258 150.2 439.145C155.612 442.614 162.038 444.638 168.944 444.638" fill="#AAAAAA"/>
</g>
<g clip-path="url(#clip7)">
<path d="M326.775 425.969C325.953 430.202 319.407 434.834 311.889 435.732C307.969 436.199 304.109 436.629 299.994 436.441C293.263 436.132 287.951 434.834 287.951 434.834C287.951 435.489 287.992 436.113 288.073 436.697C288.948 443.339 294.659 443.737 300.07 443.923C305.531 444.11 310.393 442.576 310.393 442.576L310.618 447.513C310.618 447.513 306.798 449.564 299.994 449.942C296.241 450.148 291.583 449.847 286.156 448.411C274.388 445.296 272.364 432.751 272.054 420.022C271.96 416.243 272.018 412.679 272.018 409.699C272.018 396.683 280.546 392.868 280.546 392.868C284.846 390.893 292.224 390.063 299.895 390H300.083C307.754 390.063 315.137 390.893 319.437 392.868C319.437 392.868 327.965 396.683 327.965 409.699C327.965 409.699 328.072 419.302 326.775 425.969Z" fill="#AAAAAA"/>
<path d="M317.906 410.709V426.469H311.662V411.172C311.662 407.947 310.305 406.311 307.591 406.311C304.591 406.311 303.087 408.252 303.087 412.091V420.464H296.88V412.091C296.88 408.252 295.376 406.311 292.375 406.311C289.662 406.311 288.305 407.947 288.305 411.172V426.469H282.061V410.709C282.061 407.488 282.881 404.928 284.529 403.034C286.227 401.141 288.452 400.17 291.214 400.17C294.409 400.17 296.828 401.398 298.428 403.854L299.983 406.462L301.539 403.854C303.139 401.398 305.558 400.17 308.754 400.17C311.515 400.17 313.74 401.141 315.439 403.034C317.086 404.928 317.906 407.488 317.906 410.709Z" fill="white"/>
</g>
<defs>
<radialGradient id="paint0_radial" cx="0" cy="0" r="1" gradientUnits="userSpaceOnUse" gradientTransform="translate(47.0764 91.8168) rotate(-90) scale(54.6529 50.8454)">
<stop stop-color="#FFDD55"/>
<stop offset="0.1" stop-color="#FFDD55"/>
<stop offset="0.5" stop-color="#FF543E"/>
<stop offset="1" stop-color="#C837AB"/>
</radialGradient>
<radialGradient id="paint1_radial" cx="0" cy="0" r="1" gradientUnits="userSpaceOnUse" gradientTransform="translate(23.1848 36.3969) rotate(78.6776) scale(24.4303 100.728)">
<stop stop-color="#3771C8"/>
<stop offset="0.128" stop-color="#3771C8"/>
<stop offset="1" stop-color="#6600FF" stop-opacity="0"/>
</radialGradient>
<radialGradient id="paint2_radial" cx="0" cy="0" r="1" gradientUnits="userSpaceOnUse" gradientTransform="translate(47.0764 211.817) rotate(-90) scale(54.6529 50.8454)">
<stop stop-color="#FFDD55"/>
<stop offset="0.1" stop-color="#FFDD55"/>
<stop offset="0.5" stop-color="#FF543E"/>
<stop offset="1" stop-color="#C837AB"/>
</radialGradient>
<radialGradient id="paint3_radial" cx="0" cy="0" r="1" gradientUnits="userSpaceOnUse" gradientTransform="translate(47.0764 331.817) rotate(-90) scale(54.6529 50.8454)">
<stop stop-color="#FFDD55"/>
<stop offset="0.1" stop-color="#FFDD55"/>
<stop offset="0.5" stop-color="#FF543E"/>
<stop offset="1" stop-color="#C837AB"/>
</radialGradient>
<radialGradient id="paint4_radial" cx="0" cy="0" r="1" gradientUnits="userSpaceOnUse" gradientTransform="translate(47.0764 451.817) rotate(-90) scale(54.6529 50.8454)">
<stop stop-color="#FFDD55"/>
<stop offset="0.1" stop-color="#FFDD55"/>
<stop offset="0.5" stop-color="#FF543E"/>
<stop offset="1" stop-color="#C837AB"/>
</radialGradient>
<clipPath id="clip0">
<rect width="60" height="48.8374" fill="white" transform="translate(150 36)"/>
</clipPath>
<clipPath id="clip1">
<rect width="55.9669" height="60" fill="white" transform="translate(272 30)"/>
</clipPath>
<clipPath id="clip2">
<rect width="60" height="48.8374" fill="white" transform="translate(150 156)"/>
</clipPath>
<clipPath id="clip3">
<rect width="55.9669" height="60" fill="white" transform="translate(272 150)"/>
</clipPath>
<clipPath id="clip4">
<rect width="60" height="48.8374" fill="white" transform="translate(150 276)"/>
</clipPath>
<clipPath id="clip5">
<rect width="55.9669" height="60" fill="white" transform="translate(272 270)"/>
</clipPath>
<clipPath id="clip6">
<rect width="60" height="48.8374" fill="white" transform="translate(150 396)"/>
</clipPath>
<clipPath id="clip7">
<rect width="55.9669" height="60" fill="white" transform="translate(272 390)"/>
</clipPath>
</defs>
</svg>
