<?xml version="1.0" encoding="UTF-8"?>
<svg width="1024px" height="620px" viewBox="0 0 1024 620" version="1.1" xmlns="http://www.w3.org/2000/svg" xmlns:xlink="http://www.w3.org/1999/xlink">
    <!-- Generator: Sketch 52.1 (67048) - http://www.bohemiancoding.com/sketch -->
    <title>mppd</title>
    <desc>Created with Sketch.</desc>
    <g id="mppd" stroke="none" stroke-width="1" fill="none" fill-rule="evenodd">
        <g id="Group" transform="translate(356.000000, 169.000000)">
            <g id="Shape">
                <path d="M51.2734769,9.49663551 C71.9079249,19.4764486 87.5400825,38.1885981 94.4182318,60.6431776 C138.813559,41.931028 188.836464,39.4360748 233.231791,58.1482243 C222.601924,25.0900935 191.337609,0.140560748 153.820431,0.140560748 L87.5400825,0.140560748 C74.4090701,0.140560748 62.5286303,4.50672897 51.2734769,9.49663551 L51.2734769,9.49663551 Z" fill="#70129D"></path>
                <path d="M68.7814934,281.446542 L0,212.211589 L0,83.097757 C0,36.9411215 38.1424645,0.140560748 83.7883646,0.140560748 L150.693999,0.140560748 C163.825011,0.140560748 175.080165,3.25925234 185.710032,8.8728972 C158.197435,22.5951402 137.562987,50.6633645 137.562987,83.7214953 L137.562987,162.936262 L137.562987,212.211589 L68.7814934,281.446542 L68.7814934,281.446542 Z" fill="#9315CF"></path>
                <path d="M81.2872194,0.140560748 L150.693999,0.140560748 C163.825011,0.140560748 175.080165,0.764299065 188.836464,7.62542056 C161.323866,21.3476636 138.188273,50.0396262 138.188273,83.097757 L138.188273,162.312523 L138.188273,211.58785 L69.4067797,281.446542 L0.625286303,212.211589" fill-opacity="0.2" fill="#FFFFFF"></path>
            </g>
            <g transform="translate(78.000000, 107.000000)" id="Shape">
                <path d="M165.218507,0.140560748 L234,69.375514 L234,197.865607 C234,244.022243 195.857536,280.822804 150.211635,280.822804 L83.3060009,280.822804 C70.1749885,280.822804 58.9198351,277.704112 48.2899679,272.090467 C75.8025653,258.368224 96.4370133,230.3 96.4370133,197.241869 L96.4370133,118.650841 L96.4370133,69.375514 L165.218507,0.140560748 L165.218507,0.140560748 Z" fill="#9315CF"></path>
                <path d="M234,197.865607 C234,244.022243 195.857536,280.822804 150.211635,280.822804 L83.3060009,280.822804 C70.1749885,280.822804 58.9198351,277.704112 48.2899679,272.090467 C75.8025653,258.368224 96.4370133,230.3 96.4370133,197.241869 L96.4370133,118.650841 L96.4370133,74.9891589" fill="#7314A0"></path>
                <path d="M186.478241,272.714206 C165.843793,262.734393 145.834631,242.774766 139.581768,220.943925 C95.1864407,239.656075 45.1635364,241.52729 0.768208887,222.81514 C11.398076,255.873271 43.2876775,281.446542 80.1795694,281.446542 L150.211635,281.446542 C163.342648,280.822804 175.848374,277.704112 186.478241,272.714206 L186.478241,272.714206 Z" fill="#9315CF"></path>
                <path d="M80.1795694,280.822804 L150.211635,280.822804 C163.342648,280.822804 175.848374,277.704112 186.478241,272.090467 C165.843793,262.110654 145.834631,242.151028 139.581768,220.320187" fill-opacity="0.15" fill="#FFFFFF"></path>
            </g>
        </g>
    </g>
</svg>