<?xml version="1.0" encoding="UTF-8"?>
<svg width="1024px" height="620px" viewBox="0 0 1024 620" version="1.1" xmlns="http://www.w3.org/2000/svg" xmlns:xlink="http://www.w3.org/1999/xlink">
    <!-- Generator: Sketch 52.1 (67048) - http://www.bohemiancoding.com/sketch -->
    <title>social-computing</title>
    <desc>Created with Sketch.</desc>
    <g id="social-computing" stroke="none" stroke-width="1" fill="none" fill-rule="evenodd">
        <g id="Group" transform="translate(307.000000, 185.000000)">
            <path d="M415.702359,0 L77.5335753,0 C64.1197822,0 50,12.6972973 50,26.1 L50,236.310811 C50,249.713514 64.1197822,261 77.5335753,261 L415.702359,261 C429.116152,261 439,249.008108 439,236.310811 L439,26.1 C439,12.6972973 429.116152,0 415.702359,0 L415.702359,0 Z" id="Shape" fill="#009027"></path>
            <path d="M361.466425,57 L23.2976407,57 C9.88384755,57 0,66.8388889 0,80.1916667 L0,288.916667 C0,302.269444 9.88384755,310 23.2976407,310 L361.466425,310 C374.880218,310 389,302.269444 389,288.916667 L389,79.4888889 C389,66.8388889 374.880218,57 361.466425,57 L361.466425,57 Z" id="Shape" fill="#00AB2E"></path>
            <path d="M362.169076,57 L24.2784756,57 C10.8757169,57 1,66.8388889 1,80.1916667 L361.463668,310 C374.866426,310 388.974593,302.269444 388.974593,288.916667 L388.974593,79.4888889 C389.680002,66.8388889 375.571835,57 362.169076,57 L362.169076,57 Z" id="Shape" fill-opacity="0.2" fill="#FFFFFF"></path>
            <polygon id="Shape" fill="#00AB2E" points="51 253.721154 51 392 198 246"></polygon>
            <path d="M308.416667,113 L75.5833333,113 C69.9388889,113 65,117.9 65,123.5 C65,129.1 69.9388889,134 75.5833333,134 L308.416667,134 C314.061111,134 319,129.1 319,123.5 C319,117.9 314.061111,113 308.416667,113 L308.416667,113 Z" id="Shape" fill-opacity="0.6" fill="#FFFFFF"></path>
            <path d="M308.416667,176 L75.5833333,176 C69.9388889,176 65,180.9 65,186.5 C65,192.1 69.9388889,197 75.5833333,197 L308.416667,197 C314.061111,197 319,192.1 319,186.5 C319,180.9 314.061111,176 308.416667,176 L308.416667,176 Z" id="Shape" fill-opacity="0.6" fill="#FFFFFF"></path>
            <path d="M309.679666,232 L78.3203343,232 C71.9526462,232 67,236.2 67,242.5 C67,248.8 71.9526462,253 78.3203343,253 L309.679666,253 C316.047354,253 321,248.8 321,242.5 C320.292479,236.2 315.339833,232 309.679666,232 L309.679666,232 Z" id="Shape" fill-opacity="0.6" fill="#FFFFFF"></path>
        </g>
    </g>
</svg>