<?xml version="1.0" encoding="UTF-8"?>
<svg width="1024px" height="620px" viewBox="0 0 1024 620" version="1.1" xmlns="http://www.w3.org/2000/svg" xmlns:xlink="http://www.w3.org/1999/xlink">
    <!-- Generator: Sketch 52.1 (67048) - http://www.bohemiancoding.com/sketch -->
    <title>weaving-the-web</title>
    <desc>Created with Sketch.</desc>
    <g id="weaving-the-web" stroke="none" stroke-width="1" fill="none" fill-rule="evenodd">
        <g id="Group" transform="translate(203.000000, 292.000000)" fill="#DCE5E5">
            <path d="M108.5,19.3333333 C49.259375,19.3333333 0.66875,68 0.66875,127.333333 C0.66875,186.666667 49.259375,235.333333 108.5,235.333333 C167.740625,235.333333 216.33125,186.666667 216.33125,127.333333 C216.33125,68 167.740625,19.3333333 108.5,19.3333333 L108.5,19.3333333 Z M195.696875,116.666667 L165.078125,116.666667 C163.746875,89.3333333 157.75625,66 148.4375,48.6666667 C173.73125,62 192.36875,87.3333333 195.696875,116.666667 L195.696875,116.666667 Z M98.515625,43.3333333 L98.515625,117.333333 L71.890625,117.333333 C73.8875,80.6666667 85.86875,53.3333333 98.515625,43.3333333 L98.515625,43.3333333 Z M98.515625,136.666667 L98.515625,210.666667 C85.86875,200.666667 73.8875,172.666667 71.890625,136.666667 L98.515625,136.666667 L98.515625,136.666667 Z M118.484375,210.666667 L118.484375,136.666667 L145.109375,136.666667 C143.1125,172.666667 131.13125,200.666667 118.484375,210.666667 L118.484375,210.666667 Z M118.484375,116.666667 L118.484375,42.6666667 C131.13125,52.6666667 143.1125,80.6666667 145.109375,116.666667 L118.484375,116.666667 L118.484375,116.666667 Z M68.5625,48.6666667 C59.24375,66 53.253125,89.3333333 51.921875,116.666667 L21.303125,116.666667 C24.63125,87.3333333 43.26875,62 68.5625,48.6666667 L68.5625,48.6666667 Z M21.303125,136.666667 L51.921875,136.666667 C53.253125,164 59.24375,187.333333 68.5625,204.666667 C43.26875,192 24.63125,166.666667 21.303125,136.666667 L21.303125,136.666667 Z M148.4375,205.333333 C157.75625,188 163.746875,164.666667 165.078125,137.333333 L195.696875,137.333333 C192.36875,166.666667 173.73125,192 148.4375,205.333333 L148.4375,205.333333 Z" id="Shape"></path>
        </g>
        <path d="M311.5,292 C252.259375,292 203.66875,340.666667 203.66875,400 C203.66875,459.333333 252.259375,508 311.5,508 C370.740625,508 419.33125,459.333333 419.33125,400 C419.33125,340.666667 370.740625,292 311.5,292 L311.5,292 Z M398.696875,390 L368.078125,390 C366.746875,362.666667 360.75625,339.333333 351.4375,322 C376.73125,334.666667 395.36875,360 398.696875,390 L398.696875,390 Z M301.515625,316 L301.515625,390 L274.890625,390 C276.8875,354 288.86875,326 301.515625,316 L301.515625,316 Z M301.515625,410 L301.515625,484 C288.86875,474 276.8875,446 274.890625,410 L301.515625,410 L301.515625,410 Z M321.484375,484 L321.484375,410 L348.109375,410 C346.1125,446 334.13125,474 321.484375,484 L321.484375,484 Z M321.484375,390 L321.484375,316 C334.13125,326 346.1125,354 348.109375,390 L321.484375,390 L321.484375,390 Z M271.5625,322 C262.24375,339.333333 256.253125,362.666667 254.921875,390 L224.303125,390 C227.63125,360 246.26875,334.666667 271.5625,322 L271.5625,322 Z M224.303125,410 L254.921875,410 C256.253125,437.333333 262.24375,460.666667 271.5625,478 C246.26875,465.333333 227.63125,440 224.303125,410 L224.303125,410 Z M351.4375,478 C360.75625,460.666667 366.746875,437.333333 368.078125,410 L398.696875,410 C395.36875,440 376.73125,465.333333 351.4375,478 L351.4375,478 Z" id="Shape" fill="#4951E1"></path>
        <g id="Group" transform="translate(385.000000, 173.000000)">
            <g>
                <path d="M394,378.748387 C394,387.009677 387.009677,394 378.748387,394 L15.2516129,394 C6.99032258,394 -2.27373675e-13,387.009677 -2.27373675e-13,378.748387 L-2.27373675e-13,15.2516129 C-2.27373675e-13,6.99032258 6.99032258,0 15.2516129,0 L378.748387,0 C387.009677,0 394,6.99032258 394,15.2516129 L394,378.748387 L394,378.748387 Z" id="Shape" fill="#8EA5A4"></path>
                <path d="M12.7096774,63.5483871 L12.7096774,366.674194 C12.7096774,374.3 18.4290323,381.290323 26.0548387,381.290323 L367.945161,381.290323 C375.570968,381.290323 381.290323,374.935484 381.290323,366.674194 L381.290323,63.5483871 L12.7096774,63.5483871 L12.7096774,63.5483871 Z" id="Shape" fill="#FDFFFF"></path>
                <path d="M367.945161,381.290323 C375.570968,381.290323 381.290323,374.3 381.290323,366.674194 L381.290323,63.5483871 L12.7096774,63.5483871" id="Shape" fill="#E8EFEF"></path>
                <rect id="Rectangle-path" fill="#DCE5E5" x="12.7096774" y="63.5483871" width="368.580645" height="19.0645161"></rect>
                <g transform="translate(18.253817, 19.064516)" id="Shape">
                    <path d="M295.675216,12.7096774 C295.675216,20.3354839 289.320377,25.4193548 281.694571,25.4193548 L7.1655383,25.4193548 C-0.460268153,25.4193548 0.810699588,20.3354839 0.810699588,12.7096774 L0.810699588,12.7096774 C0.810699588,5.08387097 -0.460268153,0 7.1655383,0 L281.694571,0 C289.320377,0 295.675216,5.08387097 295.675216,12.7096774 L295.675216,12.7096774 L295.675216,12.7096774 Z" fill="#FDFFFF"></path>
                    <path d="M0.810699588,13.3451613 L0.810699588,13.3451613 C0.810699588,5.71935484 -0.460268153,0 7.1655383,0 L281.694571,0 C289.320377,0 295.675216,5.71935484 295.675216,13.3451613 L295.675216,13.3451613" fill="#E6EFEF"></path>
                </g>
                <g transform="translate(330.451613, 22.176556)">
                    <g>
                        <circle id="Oval" fill="#B1BCBC" opacity="0.4" cx="6.99032258" cy="10.2331209" r="6.99032258"></circle>
                        <circle id="Oval" fill="#FFFFFF" cx="6.99032258" cy="10.2331209" r="6.99032258"></circle>
                        <path d="M3.17741935,2.60731448 C5.71935484,0.0653789991 10.8032258,0.0653789991 13.3451613,2.60731448 C15.8870968,5.14924997 15.8870968,10.2331209 13.3451613,12.7750564" id="Shape" fill="#E8EFEE"></path>
                    </g>
                    <g transform="translate(31.774194, 0.000000)">
                        <circle id="Oval" fill="#B1BCBC" opacity="0.4" cx="6.99032258" cy="10.2331209" r="6.99032258"></circle>
                        <circle id="Oval" fill="#FFFFFF" cx="6.99032258" cy="10.2331209" r="6.99032258"></circle>
                        <path d="M0,2.60731448 C2.54193548,0.0653789991 7.62580645,0.0653789991 10.1677419,2.60731448 C12.7096774,5.14924997 12.7096774,10.2331209 10.1677419,12.7750564" id="Shape" fill="#E8EFEE"></path>
                    </g>
                </g>
                <path d="M80.0709677,25.4193548 L79.4354839,24.783871 L77.5290323,24.783871 C76.8935484,24.783871 76.8935484,24.783871 76.8935484,25.4193548 L75.6225806,30.5032258 L75.6225806,30.5032258 L73.716129,25.4193548 C73.716129,24.783871 73.0806452,24.783871 73.0806452,24.783871 L71.1741935,24.783871 C70.5387097,24.783871 70.5387097,24.783871 70.5387097,25.4193548 L68.6322581,31.1387097 L68.6322581,31.1387097 L67.3612903,26.0548387 C67.3612903,25.4193548 66.7258065,25.4193548 66.7258065,25.4193548 L64.8193548,25.4193548 L64.183871,25.4193548 L63.5483871,25.4193548 L61.6419355,25.4193548 C61.0064516,25.4193548 61.0064516,25.4193548 61.0064516,26.0548387 L59.7354839,31.1387097 L59.7354839,31.1387097 L57.8290323,26.0548387 C57.8290323,25.4193548 57.1935484,25.4193548 57.1935484,25.4193548 L55.2870968,25.4193548 C54.6516129,25.4193548 54.6516129,25.4193548 54.6516129,26.0548387 L52.7451613,31.7741935 L52.7451613,31.7741935 L51.4741935,26.6903226 C51.4741935,26.0548387 50.8387097,26.0548387 50.8387097,26.0548387 L48.9322581,26.0548387 L48.2967742,26.0548387 C48.2967742,26.0548387 48.2967742,26.0548387 47.6612903,26.0548387 L45.7548387,26.0548387 C45.1193548,26.0548387 45.1193548,26.0548387 45.1193548,26.6903226 L43.8483871,31.7741935 L43.8483871,31.7741935 L41.9419355,26.6903226 C41.9419355,26.0548387 41.3064516,26.0548387 41.3064516,26.0548387 L39.4,26.0548387 C38.7645161,26.0548387 38.7645161,26.0548387 38.7645161,26.6903226 L36.8580645,32.4096774 L36.8580645,32.4096774 L35.5870968,27.3258065 C35.5870968,26.6903226 34.9516129,26.6903226 34.9516129,26.6903226 L33.0451613,26.6903226 C33.0451613,26.6903226 32.4096774,26.6903226 32.4096774,27.3258065 L32.4096774,27.9612903 L35.5870968,38.7645161 C35.5870968,39.4 36.2225806,39.4 36.2225806,39.4 L38.1290323,39.4 C38.7645161,39.4 38.7645161,39.4 38.7645161,38.7645161 L40.6709677,33.6806452 C40.6709677,33.6806452 40.6709677,33.6806452 40.6709677,33.0451613 C40.6709677,33.0451613 40.6709677,33.0451613 40.6709677,33.6806452 L42.5774194,38.7645161 C42.5774194,39.4 43.2129032,39.4 43.2129032,39.4 L45.1193548,39.4 C45.7548387,39.4 45.7548387,39.4 45.7548387,38.7645161 L48.9322581,29.2322581 L51.4741935,38.7645161 C51.4741935,39.4 52.1096774,39.4 52.1096774,39.4 L54.016129,39.4 C54.6516129,39.4 54.6516129,39.4 54.6516129,38.7645161 L56.5580645,33.6806452 C56.5580645,33.6806452 56.5580645,33.6806452 56.5580645,33.0451613 C56.5580645,33.0451613 56.5580645,33.0451613 56.5580645,33.6806452 L58.4645161,38.7645161 C58.4645161,39.4 59.1,39.4 59.1,39.4 L61.0064516,39.4 C61.6419355,39.4 61.6419355,39.4 61.6419355,38.7645161 L64.8193548,29.2322581 L67.3612903,38.7645161 C67.3612903,39.4 67.9967742,39.4 67.9967742,39.4 L69.9032258,39.4 C70.5387097,39.4 70.5387097,39.4 70.5387097,38.7645161 L72.4451613,33.6806452 C72.4451613,33.6806452 72.4451613,33.6806452 72.4451613,33.0451613 C72.4451613,33.0451613 72.4451613,33.0451613 72.4451613,33.6806452 L74.3516129,38.7645161 C74.3516129,39.4 74.9870968,39.4 74.9870968,39.4 L76.8935484,39.4 C77.5290323,39.4 77.5290323,39.4 77.5290323,38.7645161 L80.7064516,27.9612903 C80.7064516,26.0548387 80.7064516,25.4193548 80.0709677,25.4193548 L80.0709677,25.4193548 Z" id="Shape" fill="#8EA5A4"></path>
            </g>
            <g transform="translate(77.000000, 166.000000)" fill="#DCE5E5" id="Shape">
                <g transform="translate(0.000000, 25.509303)">
                    <path d="M58.2767707,117.168319 C55.735397,117.168319 53.1940232,116.530586 51.2879929,114.617388 L3.00189117,66.1497131 C1.09586084,64.2365154 0.460517395,61.6855851 0.460517395,59.1346548 C0.460517395,56.5837246 1.73120428,54.0327943 3.00189117,52.1195966 L51.2879929,3.6519214 C55.1000535,-0.174474005 60.8181445,-0.174474005 64.6302052,3.6519214 C68.4422658,7.47831681 68.4422658,13.2179099 64.6302052,17.0443053 L23.3328814,58.4969223 L64.6302052,99.9495392 C68.4422658,103.775935 68.4422658,109.515528 64.6302052,113.341923 C63.3595183,115.892853 60.8181445,117.168319 58.2767707,117.168319 L58.2767707,117.168319 Z"></path>
                    <path d="M181.533399,117.168319 C178.992025,117.168319 176.450651,116.530586 174.544621,114.617388 C170.73256,110.790993 170.73256,105.0514 174.544621,101.225004 L215.841945,59.7723874 L174.544621,18.3197705 C170.73256,14.4933751 170.73256,8.75378195 174.544621,4.92738654 C178.356682,1.10099113 184.074773,1.10099113 187.886833,4.92738654 L236.172935,53.3950617 C238.078965,55.3082594 238.714309,57.8591897 238.714309,60.41012 C238.714309,62.9610503 237.443622,65.5119805 236.172935,67.4251782 L187.886833,115.892853 C185.980803,115.892853 183.439429,117.168319 181.533399,117.168319 L181.533399,117.168319 Z"></path>
                </g>
                <path d="M88.1379126,172.651052 C86.8672257,172.651052 85.5965388,172.651052 84.3258519,172.013319 C79.2431044,170.100122 77.337074,164.360529 79.2431044,159.258668 L142.777449,6.20285168 C144.683479,1.10099113 150.40157,-0.812206573 155.484318,1.10099113 C160.567065,3.01418884 162.473095,8.75378195 160.567065,13.8556425 L97.0327208,166.911459 C95.1266905,170.100122 91.9499732,172.651052 88.1379126,172.651052 L88.1379126,172.651052 Z"></path>
            </g>
            <g transform="translate(77.000000, 144.000000)" id="Shape">
                <g transform="translate(0.000000, 25.509303)" fill="#DD1166">
                    <path d="M58.2767707,117.054008 C55.735397,117.054008 53.1940232,116.416275 51.2879929,114.503078 L3.00189117,66.0354025 C1.09586084,64.1222048 0.460517395,61.5712746 0.460517395,59.0203443 C0.460517395,56.469414 1.73120428,53.9184837 3.00189117,52.005286 L51.2879929,3.53761085 C55.1000535,-0.288784559 60.8181445,-0.288784559 64.6302052,3.53761085 C68.4422658,7.36400626 68.4422658,13.1035994 64.6302052,16.9299948 L23.3328814,58.3826117 L64.6302052,99.8352287 C68.4422658,103.661624 68.4422658,109.401217 64.6302052,113.227613 C63.3595183,116.416275 60.8181445,117.054008 58.2767707,117.054008 L58.2767707,117.054008 Z"></path>
                    <path d="M181.533399,117.054008 C178.992025,117.054008 176.450651,116.416275 174.544621,114.503078 C170.73256,110.676682 170.73256,104.937089 174.544621,101.110694 L215.841945,59.6580769 L174.544621,18.2054599 C170.73256,14.3790645 170.73256,8.6394714 174.544621,4.81307599 C178.356682,0.986680577 184.074773,0.986680577 187.886833,4.81307599 L236.172935,53.2807512 C238.078965,55.1939489 238.714309,57.7448792 238.714309,60.2958094 C238.714309,62.8467397 237.443622,65.39767 236.172935,67.3108677 L187.886833,115.778543 C185.980803,116.416275 183.439429,117.054008 181.533399,117.054008 L181.533399,117.054008 Z"></path>
                </g>
                <path d="M88.1379126,172.536741 C86.8672257,172.536741 85.5965388,172.536741 84.3258519,171.899009 C79.2431044,169.985811 77.337074,164.246218 79.2431044,159.144358 L142.777449,6.08854112 C144.683479,0.986680577 150.40157,-0.926517127 155.484318,0.986680577 C160.567065,2.89987828 162.473095,8.6394714 160.567065,13.7413319 L97.0327208,166.797148 C95.1266905,170.623544 91.9499732,172.536741 88.1379126,172.536741 L88.1379126,172.536741 Z" fill="#9315CF"></path>
            </g>
        </g>
    </g>
</svg>